<svg width="150" height="150" viewBox="0 0 150 150" fill="none" xmlns="http://www.w3.org/2000/svg">
<path d="M78.1227 55.9835L77.9393 55.9092C77.2304 57.6593 76.1905 58.4868 75.187 58.8927C74.1594 59.3084 73.1288 59.3004 72.3977 59.2911L72.3977 59.2911H72.3914H68.2103C67.6462 59.2911 67.2937 59.1435 67.1005 58.9497C66.9202 58.769 66.7992 58.468 66.8706 57.9635L67.4209 54.4444L67.4625 54.2411C67.4625 54.241 67.4625 54.2408 67.4626 54.2407C67.5966 53.5899 67.7997 52.6215 68.4328 51.7214C69.0529 50.8397 70.1152 49.9846 72.0473 49.6291L73.0157 49.4509L72.3005 48.7741L72.2178 48.6959C72.2258 48.6922 72.2342 48.6885 72.2429 48.6848C72.373 48.6284 72.5729 48.5601 72.8336 48.5244C73.3439 48.4546 74.1222 48.5048 75.1081 49.0764C75.6566 49.4524 76.489 50.2631 77.2747 51.1434C78.0681 52.0323 78.7502 52.9207 79.0101 53.4115L79.0195 53.4293L79.0303 53.4462C79.4559 54.1143 79.3965 54.7149 79.2317 55.1674C79.1473 55.3992 79.0345 55.591 78.9421 55.7249C78.9206 55.7561 78.9004 55.7838 78.8823 55.8078L78.735 55.633L78.1227 55.9835Z" fill="#402D1F" stroke="black"/>
<path d="M99.5685 89.7994L99.4756 89.3445C99.4819 89.3451 99.4882 89.3458 99.4942 89.3466L99.6204 89.7844L99.4967 89.3469C99.5013 89.3475 99.5057 89.3481 99.5099 89.3487C99.5893 89.3742 99.7486 89.5301 99.8377 89.7199C99.7656 89.7421 99.6932 89.7638 99.6205 89.7847L99.5685 89.7994ZM99.5685 89.7994L99.501 89.5609L99.4389 89.3415C99.4329 89.3412 99.4271 89.3408 99.4216 89.3406L99.5029 89.6477L99.5029 89.6477L99.5444 89.805M99.5685 89.7994L99.5505 89.8031L99.5444 89.805M99.5444 89.805L99.5218 89.7309L99.5417 89.8057C99.5435 89.8052 99.5444 89.805 99.5444 89.805ZM64.4576 53.9887L64.4545 54.0028L64.4523 54.017L64.0344 56.6903L50.0318 68.5965C49.4282 69.0628 48.9713 69.6779 48.7178 70.3771C48.621 70.6364 48.5515 70.9042 48.5105 71.1766L48.5049 71.2136V71.2511V72.1898V72.6539L48.9677 72.6884C49.5621 72.7328 50.2354 72.6877 50.9575 72.5397L50.9711 72.5369L50.9846 72.5334L95.7672 60.7237L95.7673 60.7236C95.8471 60.7026 95.9319 60.6987 96.0142 60.7127C96.0965 60.7267 96.1715 60.7576 96.2336 60.8006C96.2955 60.8434 96.3419 60.8962 96.3723 60.9522C96.4026 61.0079 96.4172 61.0667 96.4172 61.1243L96.4172 70.0436L96.4172 70.0461C96.4176 70.1249 96.3906 70.2068 96.3323 70.2793C96.2735 70.3525 96.1848 70.4128 96.0749 70.4434C87.4963 72.8201 53.4372 82.2537 52.6088 82.4596L52.6069 82.46C52.1531 82.5747 51.4088 82.7218 50.6926 82.8301C50.3354 82.884 49.9913 82.9274 49.6984 82.9524C49.3955 82.9782 49.1801 82.9812 49.0639 82.9674L48.5049 82.9009V83.4639V89.2344V89.6751L48.9421 89.7304C49.6061 89.8144 50.3032 89.7915 50.9764 89.626L50.9765 89.6261L50.9857 89.6237L95.7662 77.7054C95.7662 77.7054 95.7663 77.7054 95.7663 77.7054C95.8461 77.6841 95.931 77.6801 96.0135 77.694C96.0959 77.7079 96.171 77.7388 96.2333 77.7818C96.2954 77.8247 96.3418 77.8775 96.3723 77.9336C96.4027 77.9894 96.4172 78.0482 96.4172 78.106V86.6685V87.3172L97.0446 87.152L98.5541 86.7545L98.5544 86.7544L98.5682 86.7508L98.5779 86.7482L98.5876 86.7453L98.67 86.72C98.6703 86.7199 98.6706 86.7198 98.6708 86.7198C99.1922 86.5619 99.6947 86.3537 100.17 86.0984L100.173 86.0964C100.66 85.8298 100.959 85.5882 101.142 85.3804C101.235 85.2757 101.301 85.1765 101.345 85.0841C101.383 85.0052 101.422 84.8982 101.422 84.7818V60.809C101.422 60.2934 101.203 59.4855 100.679 58.7267C100.179 58.0026 99.46 57.4045 98.5108 57.1151L98.4908 57.109L98.4703 57.1045L82.2699 53.6129C82.1595 53.0647 81.9496 52.538 81.6493 52.0554C81.3922 51.5913 80.9994 51.0403 80.562 50.4882L99.2459 54.5138C99.2466 54.514 99.2474 54.5141 99.2482 54.5143C99.2835 54.5223 99.3184 54.5315 99.3528 54.5419L99.3528 54.5419L99.359 54.5437C101.165 55.0597 102.433 56.1585 103.236 57.3215L103.236 57.322C104.027 58.4644 104.427 59.7527 104.427 60.809V84.7818C104.427 85.7101 104.027 86.4607 103.48 87.0629C102.929 87.6697 102.247 88.1051 101.738 88.3828C101.028 88.7674 100.272 89.0765 99.4835 89.3038C99.483 89.304 99.4825 89.3041 99.482 89.3043L99.4504 89.3132L99.4503 89.3133L99.427 89.318L99.4131 89.3223L99.4129 89.3215L99.411 89.322L50.5399 102.217C50.5395 102.217 50.5391 102.217 50.5387 102.217C50.5176 102.222 50.4963 102.227 50.4749 102.232L50.4718 102.232C49.1208 102.529 47.6996 102.425 46.6759 101.464L46.6757 101.464C45.7552 100.6 45.5 99.3395 45.5 98.11V71.1769L45.5019 71.0826L45.502 71.0826V71.0818L45.5026 71.0778L45.5053 71.0593L45.5067 71.0407C45.5171 70.8969 45.5365 70.7538 45.5646 70.6119L45.5646 70.6119L45.5655 70.6072C45.6171 70.3325 45.7082 69.9574 45.869 69.5261L45.8697 69.5243C46.2773 68.4176 46.9988 67.4245 47.966 66.6493L47.9716 66.6448L47.9771 66.6401L64.8807 52.2697C64.6912 52.8419 64.5912 53.33 64.5261 53.6478L64.5246 53.6552L64.5244 53.6551L64.5224 53.6663L64.5154 53.7054C64.5152 53.7062 64.515 53.7071 64.5149 53.7079C64.4968 53.8017 64.4777 53.8953 64.4576 53.9887Z" fill="#402D1F" stroke="black"/>
<g clip-path="url(#clip0_324_229)">
<path d="M106.438 98.5744L106.938 98.5914L106.438 98.5744C106.423 99.0338 106.317 99.4856 106.127 99.904C105.936 100.322 105.666 100.699 105.33 101.013C104.994 101.327 104.6 101.571 104.169 101.733C103.739 101.894 103.281 101.969 102.821 101.953L102.804 102.453L102.821 101.953L92.8275 101.614C91.8999 101.582 91.0229 101.183 90.3892 100.504C89.7556 99.826 89.4171 98.9239 89.4482 97.9962L90.3661 71.0119C90.4024 69.9441 90.6184 69.3734 90.9583 69.0559C91.2981 68.7384 91.8821 68.5618 92.9499 68.5981L104.943 69.006C106.01 69.0423 106.581 69.2583 106.899 69.5982C107.216 69.938 107.393 70.522 107.356 71.5898L106.438 98.5744Z" fill="#C1694F" stroke="black"/>
<path d="M97.7252 75.3074L89.9795 75.0439L90.0305 73.5451L97.7762 73.8086L98.0261 73.8171L98.0346 73.5672L98.2053 68.5273L99.7049 68.5778L99.5334 73.6182L99.5249 73.8681L99.7748 73.8765L107.52 74.1393L107.469 75.6388L99.7238 75.3754L99.4739 75.3669L99.4654 75.6167L99.2391 82.2713L97.7402 82.2203L97.9666 75.5657L97.9751 75.3159L97.7252 75.3074Z" fill="#8A4B38" stroke="black" stroke-width="0.5"/>
<path d="M91.794 102.579L91.777 103.079L91.794 102.579C91.3347 102.563 90.8829 102.457 90.4644 102.267C90.046 102.077 89.6691 101.806 89.3554 101.47C89.0416 101.134 88.797 100.74 88.6357 100.309C88.4743 99.8791 88.3993 99.4211 88.415 98.9618L87.9152 98.9448L88.415 98.9617L88.8739 85.4703L107.863 86.1162L107.404 99.6077L107.903 99.6247L107.404 99.6077C107.388 100.067 107.282 100.519 107.092 100.937C106.902 101.356 106.631 101.733 106.295 102.046C105.959 102.36 105.565 102.605 105.134 102.766C104.704 102.927 104.246 103.002 103.787 102.987L103.77 103.486L103.787 102.987L91.794 102.579Z" fill="#DD2E44" stroke="black"/>
<path d="M107.866 86.0358L88.5934 93.6981L88.7792 88.2525L107.642 84.4858L107.878 85.6734L107.866 86.0358Z" fill="#BE1931" stroke="black"/>
<path d="M88.0455 90.4697L88.0113 90.4798L87.9812 90.4936L87.9811 90.4936L87.9805 90.4939L87.9804 90.494L87.9797 90.4943L87.9717 90.4977C87.9624 90.5015 87.9468 90.5078 87.9259 90.5156C87.8837 90.5313 87.8217 90.5522 87.7474 90.5712C87.5917 90.6109 87.415 90.6335 87.2603 90.6088C87.1205 90.5865 87.0088 90.5292 86.9219 90.4008C86.8244 90.2567 86.7196 89.9655 86.7387 89.3993C86.7387 89.3992 86.7387 89.3992 86.7387 89.3991L86.9937 81.9026C87.0042 81.5927 87.1916 81.219 87.518 80.9132C87.844 80.6078 88.2296 80.4444 88.5437 80.4548C88.5437 80.4548 88.5438 80.4548 88.5438 80.4548L106.534 81.0674L106.534 81.0674C106.946 81.0814 107.219 81.1925 107.404 81.3257C107.593 81.4612 107.723 81.6413 107.811 81.8352C107.901 82.0311 107.945 82.2315 107.966 82.3871C107.976 82.4637 107.98 82.5263 107.981 82.5677C107.982 82.5884 107.982 82.6036 107.982 82.6123L107.982 82.6203L107.982 82.6205C107.982 82.621 107.982 82.621 107.982 82.6207L107.891 85.2916C107.292 85.5133 106.151 85.8468 104.664 86.2478C102.917 86.7185 100.745 87.2689 98.5374 87.8191C97.39 88.1051 96.2317 88.3914 95.1191 88.6664C91.9642 89.4462 89.1766 90.1353 88.0455 90.4697Z" fill="#CCD6DD" stroke="black"/>
</g>
<defs>
<clipPath id="clip0_324_229">
<rect width="36" height="36" fill="white" transform="translate(99.3065 60) rotate(46.9482)"/>
</clipPath>
</defs>
</svg>
