<svg width="150" height="150" viewBox="0 0 150 150" fill="none" xmlns="http://www.w3.org/2000/svg">
<path d="M42 103.224V39C42 37.3431 43.3431 36 45 36H104C105.657 36 107 37.3431 107 39V103.308C107 104.375 106.432 105.369 105.495 105.878C82.2039 118.528 55.6428 111.618 43.6035 105.838C42.6017 105.357 42 104.335 42 103.224Z" stroke="black"/>
<path d="M37 107.983V33C37 31.3431 38.3431 30 40 30H109C110.657 30 112 31.3432 112 33V108.067C112 109.133 111.431 110.127 110.497 110.64C83.4057 125.525 52.4123 117.325 38.6011 110.601C37.6026 110.115 37 109.094 37 107.983Z" stroke="black"/>
<path d="M107 93H42V105.233C70.5366 119.3 97.2236 111.094 107 105.233V93Z" fill="#704523" stroke="black"/>
<path d="M107 67H42V93H107V67Z" fill="#E9E3D7" stroke="black"/>
<path d="M42 66H107V68H42V66Z" fill="#E9E3D7"/>
<path d="M42 92H107V94H42V92Z" fill="#704523"/>
<path d="M42 60H107V66H42V60Z" fill="#D9D9D9"/>
<path d="M106.5 60V66H107.5V60H106.5ZM42.5 66V60H41.5V66H42.5Z" fill="black"/>
</svg>
