<svg width="150" height="150" viewBox="0 0 150 150" fill="none" xmlns="http://www.w3.org/2000/svg">
<mask id="mask0_326_54" style="mask-type:alpha" maskUnits="userSpaceOnUse" x="43" y="37" width="64" height="76">
<path d="M99 102.029C98.6762 104.826 97.3306 107.406 95.2214 109.273C93.1122 111.139 90.388 112.162 87.5714 112.143H62.3143C59.4978 112.162 56.7736 111.139 54.6644 109.273C52.5552 107.406 51.2096 104.826 50.8857 102.029L43.5714 37.8571H106.429L99 102.029ZM46.2 60.7143H103.8Z" fill="#D9D9D9"/>
<path d="M46.2 60.7143H103.8M99 102.029C98.6762 104.826 97.3306 107.406 95.2214 109.273C93.1122 111.139 90.388 112.162 87.5714 112.143H62.3143C59.4978 112.162 56.7736 111.139 54.6644 109.273C52.5552 107.406 51.2096 104.826 50.8857 102.029L43.5714 37.8571H106.429L99 102.029Z" stroke="black" stroke-linecap="round" stroke-linejoin="round"/>
</mask>
<g mask="url(#mask0_326_54)">
<rect x="39" y="62" width="67" height="53" fill="#FF9635"/>
</g>
<path d="M45.6764 61.7692H104.324M99.4364 102.924C99.1066 105.712 97.7365 108.281 95.589 110.141C93.4415 112 90.6677 113.018 87.8 113H62.0836C59.2159 113.018 56.4422 112 54.2946 110.141C52.1471 108.281 50.777 105.712 50.4473 102.924L43 39H107L99.4364 102.924Z" stroke="black" stroke-linecap="round" stroke-linejoin="round"/>
<path d="M103.5 104.21C104.444 104.21 105.21 103.444 105.21 102.5C105.21 101.556 104.444 100.79 103.5 100.79C102.556 100.79 101.79 101.556 101.79 102.5C101.79 103.444 102.556 104.21 103.5 104.21Z" fill="black" stroke="black" stroke-width="2" stroke-miterlimit="10" stroke-linejoin="round"/>
<path d="M98.135 89.5999L108.858 115.493M90.5002 107.865L116.379 97.1422M90.5144 97.1208L116.35 107.822M108.787 89.6639L98.135 115.372" stroke="black" stroke-width="2" stroke-linejoin="round"/>
<path d="M103.5 104C104.328 104 105 103.328 105 102.5C105 101.672 104.328 101 103.5 101C102.672 101 102 101.672 102 102.5C102 103.328 102.672 104 103.5 104Z" fill="#FFA7C0"/>
<path d="M103.5 121C113.717 121 122 112.717 122 102.5C122 92.2827 113.717 84 103.5 84C93.2827 84 85 92.2827 85 102.5C85 112.717 93.2827 121 103.5 121Z" fill="#E27022"/>
<path d="M103.5 117C111.508 117 118 110.508 118 102.5C118 94.4919 111.508 88 103.5 88C95.4919 88 89 94.4919 89 102.5C89 110.508 95.4919 117 103.5 117Z" fill="#F1B31C"/>
<path d="M98.3756 90L108.734 115M108.666 90.0618L98.3756 114.883M91 107.635L116 97.2822M91.0137 97.2616L115.973 107.594" stroke="#E27022" stroke-width="2" stroke-linejoin="round"/>
<path d="M103.5 104C104.328 104 105 103.328 105 102.5C105 101.672 104.328 101 103.5 101C102.672 101 102 101.672 102 102.5C102 103.328 102.672 104 103.5 104Z" fill="#E27022" stroke="#E27022" stroke-width="2" stroke-miterlimit="10" stroke-linejoin="round"/>
<path d="M122 102.5C122 107.407 120.051 112.112 116.581 115.581C113.112 119.051 108.407 121 103.5 121C98.5935 121 93.8879 119.051 90.4185 115.581C86.9491 112.112 85 107.407 85 102.5C85 97.5935 86.9491 92.8879 90.4185 89.4185C93.8879 85.9491 98.5935 84 103.5 84C108.407 84 113.112 85.9491 116.581 89.4185C120.051 92.8879 122 97.5935 122 102.5Z" stroke="black" stroke-width="2" stroke-miterlimit="10"/>
<path d="M117.468 102.5C117.468 104.334 117.106 106.15 116.404 107.845C115.702 109.54 114.674 111.079 113.377 112.376C112.08 113.673 110.54 114.702 108.845 115.404C107.151 116.106 105.334 116.467 103.5 116.467C99.7956 116.467 96.2429 114.996 93.6235 112.376C91.0041 109.757 89.5325 106.204 89.5325 102.5C89.5325 98.7956 91.0041 95.2429 93.6235 92.6235C96.2429 90.004 99.7956 88.5325 103.5 88.5325C105.334 88.5325 107.151 88.8937 108.845 89.5957C110.54 90.2976 112.08 91.3265 113.377 92.6235C114.674 93.9205 115.702 95.4602 116.404 97.1548C117.106 98.8495 117.468 100.666 117.468 102.5Z" stroke="black" stroke-width="2" stroke-miterlimit="10"/>
</svg>
