<svg width="150" height="150" viewBox="0 0 150 150" fill="none" xmlns="http://www.w3.org/2000/svg">
<path d="M42 103.224V39C42 37.3431 43.3431 36 45 36H104C105.657 36 107 37.3431 107 39V103.308C107 104.375 106.432 105.369 105.495 105.878C82.2039 118.528 55.6428 111.618 43.6035 105.838C42.6017 105.357 42 104.335 42 103.224Z" stroke="black"/>
<path d="M37 107.983V33C37 31.3431 38.3431 30 40 30H109C110.657 30 112 31.3432 112 33V108.067C112 109.133 111.431 110.127 110.497 110.64C83.4057 125.525 52.4123 117.325 38.6011 110.601C37.6026 110.115 37 109.094 37 107.983Z" stroke="black"/>
<path d="M107 93H42V105.233C70.5366 119.3 97.2236 111.094 107 105.233V93Z" fill="#402D1F" stroke="black"/>
<path d="M42 46H107V95H42V46Z" fill="#402D1F"/>
</svg>
