<svg width="150" height="150" viewBox="0 0 150 150" fill="none" xmlns="http://www.w3.org/2000/svg">
<g clip-path="url(#clip0_326_82)">
<path d="M52.2688 102.013L42.5384 39.4611C42.2555 37.6423 43.6621 36 45.5027 36H103.605C105.408 36 106.804 37.5797 106.582 39.3694L98.6828 103.027C98.5676 103.955 98.0123 104.788 97.1966 105.246C74.3593 118.071 64.4561 110.101 53.8224 104.217C52.994 103.758 52.4143 102.949 52.2688 102.013Z" stroke="black"/>
<path d="M43.7965 107.469L33.9513 33.3953C33.7123 31.5972 35.1113 30 36.9251 30H112.202C113.971 30 115.355 31.5226 115.188 33.2835L108.145 107.47C108.054 108.43 107.496 109.299 106.654 109.77C79.7222 124.839 58.4175 116.469 45.3666 109.716C44.5056 109.271 43.9242 108.43 43.7965 107.469Z" stroke="black"/>
<path d="M99.5023 93H51L52.2549 101.366C52.4118 102.412 52.9756 103.36 53.8392 103.971C68.7285 114.519 81.0212 114.681 98.5 104L99.5023 93Z" fill="#704523" stroke="black"/>
<path d="M105.5 47H44L51 93H99.5L105.5 47Z" fill="#E9E3D7" stroke="black"/>
<path d="M51.5 93H79.5H99" stroke="#E9E3D7"/>
<path d="M77.4531 49.2328L82.644 44.0419C82.8392 43.8467 83.1558 43.8467 83.3511 44.0419L88.5419 49.2328C88.7372 49.428 88.7372 49.7446 88.5419 49.9399L83.3511 55.1307C83.1558 55.326 82.8392 55.326 82.644 55.1307L77.4531 49.9399C77.2579 49.7446 77.2579 49.428 77.4531 49.2328Z" fill="white" stroke="black"/>
<path d="M91.6632 49.2328L96.8541 44.0419C97.0493 43.8467 97.3659 43.8467 97.5612 44.0419L102.752 49.2328C102.947 49.428 102.947 49.7446 102.752 49.9399L97.5612 55.1307C97.3659 55.326 97.0493 55.326 96.8541 55.1307L91.6632 49.9399C91.468 49.7446 91.468 49.428 91.6632 49.2328Z" fill="white" stroke="black"/>
<rect x="48.6794" y="49.5774" width="8.34094" height="8.34094" rx="0.5" transform="rotate(-45 48.6794 49.5774)" fill="white" stroke="black"/>
<rect x="62.8895" y="49.6031" width="8.34094" height="8.34094" rx="0.5" transform="rotate(-45 62.8895 49.6031)" fill="white" stroke="black"/>
<path d="M70.2707 59.2514L75.4616 54.0606C75.6568 53.8653 75.9734 53.8653 76.1687 54.0606L81.3595 59.2514C81.5548 59.4467 81.5548 59.7633 81.3595 59.9585L76.1687 65.1494C75.9734 65.3446 75.6568 65.3446 75.4616 65.1494L70.2707 59.9585C70.0755 59.7633 70.0755 59.4467 70.2707 59.2514Z" fill="white" stroke="black"/>
<path d="M84.4808 59.2514L89.6717 54.0606C89.8669 53.8653 90.1835 53.8653 90.3788 54.0606L95.5696 59.2514C95.7649 59.4467 95.7649 59.7633 95.5696 59.9585L90.3788 65.1494C90.1835 65.3446 89.8669 65.3446 89.6717 65.1494L84.4808 59.9585C84.2856 59.7633 84.2856 59.4467 84.4808 59.2514Z" fill="white" stroke="black"/>
<rect x="55.7071" y="59.6218" width="8.34094" height="8.34094" rx="0.5" transform="rotate(-45 55.7071 59.6218)" fill="white" stroke="black"/>
<path d="M122.883 95.8382C124.13 98.4028 124.748 101.885 124.407 105.671C124.067 109.456 122.837 112.782 121.15 115.098C119.456 117.423 117.363 118.66 115.285 118.483L115.243 118.981L115.285 118.483C113.208 118.306 111.369 116.737 110.117 114.162C108.87 111.597 108.252 108.116 108.593 104.33L108.593 104.33C108.933 100.544 110.163 97.2183 111.85 94.9023C113.544 92.5767 115.637 91.34 117.715 91.5168C119.792 91.6936 121.631 93.2635 122.883 95.8382Z" fill="#D04B06" stroke="black"/>
<path d="M119.715 91.5168C121.792 91.6936 123.631 93.2635 124.883 95.8382C126.13 98.4028 126.748 101.885 126.407 105.671C126.067 109.456 124.837 112.782 123.15 115.098C121.456 117.423 119.363 118.66 117.285 118.483C115.208 118.306 113.369 116.736 112.117 114.162C110.87 111.597 110.252 108.115 110.593 104.329C110.933 100.544 112.163 97.2183 113.85 94.9023C115.544 92.5767 117.637 91.34 119.715 91.5168Z" fill="#C65C14" stroke="black"/>
<path d="M115.407 104.329C115.748 108.115 115.13 111.597 113.883 114.162C112.631 116.737 110.792 118.306 108.715 118.483C106.637 118.66 104.544 117.423 102.85 115.098C101.163 112.782 99.9332 109.456 99.5927 105.671C99.2522 101.885 99.8697 98.4028 101.117 95.8382C102.369 93.2635 104.208 91.6936 106.285 91.5168C108.363 91.34 110.456 92.5767 112.15 94.9023C113.837 97.2183 115.067 100.544 115.407 104.329Z" fill="#D04B06" stroke="black"/>
<path d="M104.285 91.5168L104.243 91.0186L104.285 91.5168C106.363 91.34 108.456 92.5767 110.15 94.9023C111.837 97.2183 113.067 100.544 113.407 104.329C113.748 108.115 113.13 111.597 111.883 114.162C110.631 116.737 108.792 118.306 106.715 118.483C104.637 118.66 102.544 117.423 100.85 115.098C99.163 112.782 97.9333 109.456 97.5927 105.671C97.2521 101.885 97.8697 98.4028 99.117 95.8382C100.369 93.2635 102.208 91.6936 104.285 91.5168Z" fill="#C65C14" stroke="black"/>
<path d="M110.593 105.33L110.593 105.33C110.933 101.544 112.163 98.2183 113.85 95.9022C115.544 93.5767 117.637 92.34 119.715 92.5168C121.792 92.6936 123.631 94.2634 124.883 96.8381C126.13 99.4028 126.748 102.884 126.407 106.67C126.067 110.456 124.837 113.782 123.15 116.098C121.456 118.423 119.363 119.66 117.285 119.483L117.242 119.981L117.285 119.483C115.208 119.306 113.369 117.737 112.117 115.162C110.87 112.597 110.252 109.116 110.593 105.33Z" fill="#F17008" stroke="black"/>
<mask id="path-18-inside-1_326_82" fill="white">
<path d="M108.325 96L108 93.0121C108 93.0121 108.179 91.4149 111.45 91.1861C114.72 90.9573 109.946 83.8579 109.946 83.8579C109.946 83.8579 111.044 79.8927 112.845 81.3035C114.647 82.7143 114.719 90.9568 114.719 90.9568C114.719 90.9568 115.881 94.0583 116 95.1541"/>
</mask>
<path d="M108.325 96L108 93.0121C108 93.0121 108.179 91.4149 111.45 91.1861C114.72 90.9573 109.946 83.8579 109.946 83.8579C109.946 83.8579 111.044 79.8927 112.845 81.3035C114.647 82.7143 114.719 90.9568 114.719 90.9568C114.719 90.9568 115.881 94.0583 116 95.1541" fill="#8F6646"/>
<path d="M108 93.0121L107.006 92.9006L106.994 93.0105L107.006 93.1204L108 93.0121ZM109.946 83.8579L108.982 83.591L108.859 84.0343L109.116 84.416L109.946 83.8579ZM112.845 81.3035L113.462 80.5162L113.462 80.5162L112.845 81.3035ZM114.719 90.9568L113.719 90.9655L113.72 91.1421L113.782 91.3075L114.719 90.9568ZM109.32 95.8917L108.994 92.9038L107.006 93.1204L107.331 96.1083L109.32 95.8917ZM108 93.0121C108.994 93.1237 108.994 93.1246 108.994 93.1256C108.994 93.1259 108.993 93.1269 108.993 93.1275C108.993 93.1288 108.993 93.13 108.993 93.1312C108.993 93.1337 108.992 93.136 108.992 93.1383C108.991 93.1428 108.991 93.1471 108.99 93.151C108.989 93.1588 108.988 93.1655 108.987 93.171C108.985 93.1819 108.984 93.1884 108.983 93.191C108.982 93.1961 108.984 93.1858 108.993 93.164C109.012 93.123 109.062 93.0284 109.185 92.9124C109.424 92.6869 110.042 92.2871 111.52 92.1837L111.38 90.1885C109.587 90.314 108.481 90.8271 107.812 91.4575C107.482 91.7694 107.282 92.0884 107.165 92.354C107.107 92.4855 107.069 92.6018 107.045 92.6951C107.033 92.7418 107.025 92.7828 107.019 92.8173C107.015 92.8346 107.013 92.8502 107.011 92.8641C107.01 92.8711 107.009 92.8776 107.008 92.8837C107.008 92.8867 107.008 92.8896 107.007 92.8925C107.007 92.8939 107.007 92.8952 107.007 92.8966C107.007 92.8973 107.007 92.8983 107.006 92.8986C107.006 92.8996 107.006 92.9006 108 93.0121ZM111.52 92.1837C112.122 92.1415 112.688 91.9251 113.088 91.4507C113.472 90.9959 113.586 90.4424 113.594 89.9621C113.611 89.0343 113.241 87.9559 112.841 87.0371C112.425 86.0821 111.908 85.1478 111.501 84.4609C111.296 84.1153 111.116 83.8276 110.987 83.6254C110.923 83.5242 110.871 83.4442 110.834 83.3889C110.816 83.3612 110.802 83.3396 110.792 83.3246C110.787 83.3172 110.783 83.3113 110.78 83.3071C110.779 83.3051 110.778 83.3034 110.777 83.3022C110.777 83.3016 110.776 83.3011 110.776 83.3007C110.776 83.3005 110.776 83.3003 110.776 83.3002C110.775 83.3 110.775 83.2998 109.946 83.8579C109.116 84.416 109.116 84.4159 109.116 84.4158C109.116 84.4158 109.116 84.4158 109.116 84.4158C109.116 84.4158 109.116 84.416 109.116 84.4162C109.116 84.4167 109.117 84.4176 109.118 84.4189C109.12 84.4216 109.122 84.426 109.126 84.4319C109.134 84.4438 109.146 84.4621 109.162 84.4865C109.194 84.5352 109.242 84.608 109.301 84.7014C109.421 84.8883 109.589 85.157 109.78 85.4806C110.166 86.132 110.638 86.9868 111.007 87.8353C111.392 88.7199 111.603 89.4593 111.595 89.9269C111.591 90.1444 111.541 90.1831 111.56 90.1603C111.596 90.118 111.596 90.1734 111.38 90.1885L111.52 92.1837ZM109.946 83.8579C110.909 84.1248 110.909 84.125 110.909 84.1252C110.909 84.1253 110.909 84.1255 110.909 84.1256C110.909 84.1258 110.909 84.1259 110.909 84.126C110.909 84.1262 110.909 84.1261 110.909 84.1258C110.909 84.1253 110.91 84.1238 110.91 84.1214C110.912 84.1167 110.914 84.1085 110.917 84.0972C110.924 84.0744 110.935 84.0388 110.949 83.9928C110.979 83.9005 111.023 83.7676 111.082 83.6114C111.201 83.2922 111.369 82.906 111.572 82.5744C111.792 82.2159 111.974 82.053 112.07 82.0067C112.096 81.994 112.09 82.0019 112.073 81.9997C112.062 81.9983 112.113 82 112.229 82.0908L113.462 80.5162C113.127 80.2543 112.749 80.0714 112.334 80.0167C111.912 79.9614 111.525 80.0475 111.195 80.2082C110.577 80.5086 110.147 81.0725 109.867 81.5289C109.571 82.0123 109.351 82.5292 109.209 82.9094C109.136 83.1028 109.081 83.2687 109.043 83.3877C109.024 83.4474 109.01 83.4957 108.999 83.5303C108.994 83.5476 108.99 83.5615 108.987 83.5717C108.986 83.5768 108.985 83.581 108.984 83.5842C108.983 83.5858 108.983 83.5872 108.983 83.5884C108.982 83.5889 108.982 83.5894 108.982 83.5899C108.982 83.5901 108.982 83.5904 108.982 83.5905C108.982 83.5908 108.982 83.591 109.946 83.8579ZM112.229 82.0908C112.283 82.1332 112.399 82.2624 112.543 82.5589C112.68 82.8431 112.811 83.2158 112.932 83.6657C113.173 84.5655 113.344 85.6705 113.463 86.7673C113.582 87.8577 113.646 88.9094 113.68 89.6907C113.698 90.0806 113.707 90.4015 113.713 90.6239C113.715 90.7351 113.717 90.8216 113.718 90.8798C113.718 90.9089 113.719 90.9309 113.719 90.9453C113.719 90.9526 113.719 90.9579 113.719 90.9613C113.719 90.963 113.719 90.9642 113.719 90.9649C113.719 90.9652 113.719 90.9655 113.719 90.9656C113.719 90.9656 113.719 90.9656 113.719 90.9656C113.719 90.9656 113.719 90.9655 114.719 90.9568C115.719 90.948 115.719 90.9478 115.719 90.9477C115.719 90.9476 115.719 90.9474 115.719 90.9472C115.719 90.9468 115.719 90.9463 115.719 90.9456C115.719 90.9443 115.719 90.9426 115.719 90.9403C115.719 90.9357 115.719 90.9292 115.719 90.9208C115.718 90.904 115.718 90.8795 115.717 90.8479C115.716 90.7846 115.715 90.6927 115.712 90.5758C115.706 90.3419 115.696 90.0078 115.678 89.6029C115.643 88.7947 115.576 87.6976 115.452 86.5511C115.328 85.4109 115.143 84.1908 114.864 83.1483C114.724 82.6271 114.554 82.1244 114.343 81.6878C114.138 81.2635 113.858 80.8265 113.462 80.5162L112.229 82.0908ZM114.719 90.9568C113.782 91.3075 113.782 91.3075 113.782 91.3075C113.782 91.3075 113.782 91.3075 113.782 91.3075C113.782 91.3076 113.782 91.3077 113.783 91.3078C113.783 91.3081 113.783 91.3085 113.783 91.3092C113.784 91.3105 113.784 91.3125 113.785 91.3152C113.787 91.3207 113.79 91.3291 113.795 91.3401C113.803 91.3622 113.815 91.3951 113.831 91.4376C113.862 91.5225 113.907 91.6457 113.961 91.7971C114.07 92.1002 114.217 92.5148 114.366 92.9619C114.681 93.9032 114.96 94.8431 115.006 95.2624L116.994 95.0459C116.92 94.3694 116.559 93.2105 116.263 92.3271C116.107 91.8619 115.956 91.4325 115.843 91.1199C115.787 90.9634 115.74 90.8357 115.707 90.7468C115.691 90.7023 115.678 90.6675 115.669 90.6436C115.665 90.6317 115.661 90.6225 115.659 90.6161C115.658 90.613 115.657 90.6105 115.656 90.6088C115.656 90.608 115.656 90.6073 115.656 90.6068C115.656 90.6066 115.655 90.6064 115.655 90.6063C115.655 90.6062 115.655 90.6061 115.655 90.6061C115.655 90.606 115.655 90.606 114.719 90.9568Z" fill="black" mask="url(#path-18-inside-1_326_82)"/>
<path d="M124.905 106.715L124.407 106.671C124.748 102.885 124.13 99.4029 122.883 96.8382C121.631 94.2635 119.792 92.6936 117.715 92.5168M124.905 106.715L117.715 92.5168M124.905 106.715L124.407 106.671C124.067 110.456 122.837 113.782 121.15 116.098C119.456 118.423 117.363 119.66 115.285 119.483C113.208 119.306 111.369 117.737 110.117 115.162C108.87 112.597 108.252 109.115 108.593 105.329L108.593 105.329C108.933 101.544 110.163 98.2183 111.85 95.9023C113.544 93.5767 115.637 92.34 117.715 92.5168M124.905 106.715L117.758 92.0186L117.715 92.5168" fill="#F48D39" stroke="black"/>
<path d="M113.407 105.33L113.905 105.285L113.407 105.33C113.748 109.116 113.13 112.597 111.883 115.162C110.631 117.737 108.792 119.306 106.715 119.483C104.637 119.66 102.544 118.423 100.85 116.098C99.1629 113.782 97.9332 110.456 97.5927 106.67L97.5927 106.67C97.2521 102.884 97.8697 99.4028 99.117 96.8381C100.369 94.2634 102.208 92.6936 104.285 92.5168C106.363 92.34 108.456 93.5767 110.15 95.9022C111.837 98.2183 113.067 101.544 113.407 105.33Z" fill="#F17008" stroke="black"/>
<path d="M115.407 105.329L115.905 105.285L115.407 105.329C115.748 109.115 115.13 112.597 113.883 115.162C112.631 117.737 110.792 119.306 108.715 119.483C106.637 119.66 104.544 118.423 102.85 116.098C101.163 113.782 99.9332 110.456 99.5927 106.671C99.2522 102.885 99.8697 99.4028 101.117 96.8382C102.369 94.2635 104.208 92.6936 106.285 92.5168C108.363 92.34 110.456 93.5767 112.15 95.9023C113.837 98.2183 115.067 101.544 115.407 105.329Z" fill="#F48D39" stroke="black"/>
<path d="M119.5 106C119.5 109.79 118.566 113.197 117.083 115.64C115.594 118.092 113.606 119.5 111.5 119.5C109.394 119.5 107.406 118.092 105.917 115.64C104.434 113.197 103.5 109.79 103.5 106C103.5 102.21 104.434 98.8031 105.917 96.36C107.406 93.9079 109.394 92.5 111.5 92.5C113.606 92.5 115.594 93.9079 117.083 96.36C118.566 98.8031 119.5 102.21 119.5 106Z" fill="#F17008" stroke="black"/>
</g>
<defs>
<clipPath id="clip0_326_82">
<rect width="150" height="150" fill="white"/>
</clipPath>
</defs>
</svg>
