<svg width="150" height="150" viewBox="0 0 150 150" fill="none" xmlns="http://www.w3.org/2000/svg">
<path d="M52.2688 102.013L42.5384 39.4611C42.2555 37.6423 43.6621 36 45.5027 36H103.605C105.408 36 106.804 37.5797 106.582 39.3694L98.6828 103.027C98.5676 103.955 98.0123 104.788 97.1966 105.246C74.3593 118.071 64.4561 110.101 53.8224 104.217C52.994 103.758 52.4143 102.949 52.2688 102.013Z" stroke="black"/>
<path d="M43.7965 107.469L33.9513 33.3953C33.7123 31.5972 35.1113 30 36.9251 30H112.202C113.971 30 115.355 31.5226 115.188 33.2835L108.145 107.47C108.054 108.43 107.496 109.299 106.654 109.77C79.7222 124.839 58.4175 116.469 45.3666 109.716C44.5056 109.271 43.9242 108.43 43.7965 107.469Z" stroke="black"/>
<path d="M99.5023 93H51L52.2549 101.366C52.4118 102.412 52.9756 103.36 53.8392 103.971C68.7285 114.519 81.0212 114.681 98.5 104L99.5023 93Z" fill="#704523" stroke="black"/>
<path d="M105.5 47H44L51 93H99.5L105.5 47Z" fill="#E9E3D7" stroke="black"/>
<path d="M51.5 93H79.5H99" stroke="#E9E3D7"/>
<path d="M77.4531 49.9399C77.2579 49.7446 77.2579 49.428 77.4531 49.2328L82.644 44.0419C82.8392 43.8467 83.1558 43.8467 83.3511 44.0419L88.5419 49.2328C88.7372 49.428 88.7372 49.7446 88.5419 49.9399L83.3511 55.1307C83.1558 55.326 82.8392 55.326 82.644 55.1307L77.4531 49.9399Z" fill="white" stroke="black"/>
<path d="M91.6632 49.9399C91.468 49.7446 91.468 49.428 91.6632 49.2328L96.8541 44.0419C97.0493 43.8467 97.3659 43.8467 97.5612 44.0419L102.752 49.2328C102.947 49.428 102.947 49.7446 102.752 49.9399L97.5612 55.1307C97.3659 55.326 97.0493 55.326 96.8541 55.1307L91.6632 49.9399Z" fill="white" stroke="black"/>
<rect x="48.6794" y="49.5774" width="8.34094" height="8.34094" rx="0.5" transform="rotate(-45 48.6794 49.5774)" fill="white" stroke="black"/>
<rect x="62.8895" y="49.6031" width="8.34094" height="8.34094" rx="0.5" transform="rotate(-45 62.8895 49.6031)" fill="white" stroke="black"/>
<path d="M70.2707 59.9586C70.0755 59.7633 70.0755 59.4468 70.2707 59.2515L75.4616 54.0607C75.6568 53.8654 75.9734 53.8654 76.1687 54.0607L81.3595 59.2515C81.5548 59.4468 81.5548 59.7633 81.3595 59.9586L76.1687 65.1494C75.9734 65.3447 75.6568 65.3447 75.4616 65.1494L70.2707 59.9586Z" fill="white" stroke="black"/>
<path d="M84.4808 59.9586C84.2856 59.7633 84.2856 59.4468 84.4808 59.2515L89.6717 54.0607C89.8669 53.8654 90.1835 53.8654 90.3788 54.0607L95.5696 59.2515C95.7649 59.4468 95.7649 59.7633 95.5696 59.9586L90.3788 65.1494C90.1835 65.3447 89.8669 65.3447 89.6717 65.1494L84.4808 59.9586Z" fill="white" stroke="black"/>
<rect x="55.7071" y="59.6219" width="8.34094" height="8.34094" rx="0.5" transform="rotate(-45 55.7071 59.6219)" fill="white" stroke="black"/>
</svg>
