<svg width="150" height="150" viewBox="0 0 150 150" fill="none" xmlns="http://www.w3.org/2000/svg">
<g clip-path="url(#clip0_326_82)">
<path d="M52.2688 102.013L42.5384 39.4611C42.2555 37.6423 43.6621 36 45.5027 36H103.605C105.408 36 106.804 37.5797 106.582 39.3694L98.6828 103.027C98.5676 103.955 98.0123 104.788 97.1966 105.246C74.3593 118.071 64.4561 110.101 53.8224 104.217C52.994 103.758 52.4143 102.949 52.2688 102.013Z" stroke="black"/>
<path d="M43.7965 107.469L33.9513 33.3953C33.7123 31.5972 35.1113 30 36.9251 30H112.202C113.971 30 115.355 31.5226 115.188 33.2835L108.145 107.47C108.054 108.43 107.496 109.299 106.654 109.77C79.7222 124.839 58.4175 116.469 45.3666 109.716C44.5056 109.271 43.9242 108.43 43.7965 107.469Z" stroke="black"/>
<path d="M99.5023 93H51L52.2549 101.366C52.4118 102.412 52.9756 103.36 53.8392 103.971C68.7285 114.519 81.0212 114.681 98.5 104L99.5023 93Z" fill="#704523" stroke="black"/>
<path d="M105.5 47H44L51 93H99.5L105.5 47Z" fill="#E9E3D7" stroke="black"/>
<path d="M51.5 93H79.5H99" stroke="#E9E3D7"/>
<path d="M77.4531 49.2328L82.644 44.0419C82.8392 43.8467 83.1558 43.8467 83.3511 44.0419L88.5419 49.2328C88.7372 49.428 88.7372 49.7446 88.5419 49.9399L83.3511 55.1307C83.1558 55.326 82.8392 55.326 82.644 55.1307L77.4531 49.9399C77.2579 49.7446 77.2579 49.428 77.4531 49.2328Z" fill="white" stroke="black"/>
<path d="M91.6632 49.2328L96.8541 44.0419C97.0493 43.8467 97.3659 43.8467 97.5612 44.0419L102.752 49.2328C102.947 49.428 102.947 49.7446 102.752 49.9399L97.5612 55.1307C97.3659 55.326 97.0493 55.326 96.8541 55.1307L91.6632 49.9399C91.468 49.7446 91.468 49.428 91.6632 49.2328Z" fill="white" stroke="black"/>
<rect x="48.6794" y="49.5774" width="8.34094" height="8.34094" rx="0.5" transform="rotate(-45 48.6794 49.5774)" fill="white" stroke="black"/>
<rect x="62.8895" y="49.6031" width="8.34094" height="8.34094" rx="0.5" transform="rotate(-45 62.8895 49.6031)" fill="white" stroke="black"/>
<path d="M70.2707 59.2514L75.4616 54.0606C75.6568 53.8653 75.9734 53.8653 76.1687 54.0606L81.3595 59.2514C81.5548 59.4467 81.5548 59.7633 81.3595 59.9585L76.1687 65.1494C75.9734 65.3446 75.6568 65.3446 75.4616 65.1494L70.2707 59.9585C70.0755 59.7633 70.0755 59.4467 70.2707 59.2514Z" fill="white" stroke="black"/>
<path d="M84.4808 59.2514L89.6717 54.0606C89.8669 53.8653 90.1835 53.8653 90.3788 54.0606L95.5696 59.2514C95.7649 59.4467 95.7649 59.7633 95.5696 59.9585L90.3788 65.1494C90.1835 65.3446 89.8669 65.3446 89.6717 65.1494L84.4808 59.9585C84.2856 59.7633 84.2856 59.4467 84.4808 59.2514Z" fill="white" stroke="black"/>
<rect x="55.7071" y="59.6218" width="8.34094" height="8.34094" rx="0.5" transform="rotate(-45 55.7071 59.6218)" fill="white" stroke="black"/>
<path d="M124.905 105.715C125.6 97.9937 122.4 91.4137 117.758 91.0186C113.115 90.6236 108.789 96.563 108.095 104.285C107.4 112.006 110.6 118.586 115.243 118.981C119.885 119.376 124.211 113.437 124.905 105.715V105.715Z" fill="#D04B06"/>
<path d="M126.905 105.715C127.6 97.9937 124.4 91.4137 119.757 91.0186C115.115 90.6236 110.789 96.563 110.095 104.285C109.4 112.006 112.6 118.586 117.242 118.981C121.884 119.376 126.211 113.437 126.905 105.715Z" fill="#C65C14"/>
<path d="M108.757 118.981C113.4 118.586 116.6 112.006 115.905 104.285C115.211 96.563 110.885 90.6236 106.242 91.0186C101.6 91.4137 98.4002 97.9937 99.0947 105.715C99.7891 113.437 104.115 119.376 108.757 118.981Z" fill="#D04B06"/>
<path d="M106.758 118.981C111.4 118.586 114.6 112.006 113.905 104.285C113.211 96.563 108.885 90.6236 104.243 91.0186C99.6004 91.4137 96.4001 97.9937 97.0947 105.715C97.7893 113.437 102.115 119.376 106.758 118.981Z" fill="#C65C14"/>
<path d="M126.905 106.715C127.6 98.9936 124.4 92.4137 119.757 92.0186C115.115 91.6236 110.789 97.5629 110.095 105.285C109.4 113.006 112.6 119.586 117.242 119.981C121.884 120.376 126.211 114.437 126.905 106.715Z" fill="#F17008"/>
<path d="M108.325 96L108 93.0121C108 93.0121 108.179 91.4149 111.45 91.1861C114.72 90.9573 109.946 83.8579 109.946 83.8579C109.946 83.8579 111.044 79.8927 112.845 81.3035C114.647 82.7143 114.719 90.9568 114.719 90.9568C114.719 90.9568 115.881 94.0583 116 95.1541" fill="#8F6646"/>
<path d="M124.905 106.715C125.6 98.9937 122.4 92.4138 117.758 92.0186C113.115 91.6236 108.789 97.563 108.095 105.285C107.4 113.006 110.6 119.586 115.242 119.981C119.885 120.376 124.211 114.437 124.905 106.715Z" fill="#F48D39"/>
<path d="M106.757 119.981C111.4 119.586 114.6 113.006 113.905 105.285C113.211 97.5629 108.885 91.6236 104.243 92.0186C99.6005 92.4137 96.4001 98.9936 97.0947 106.715C97.7892 114.437 102.115 120.376 106.757 119.981Z" fill="#F17008"/>
<path d="M108.758 119.981C113.4 119.586 116.6 113.006 115.905 105.285C115.211 97.563 110.885 91.6236 106.242 92.0186C101.6 92.4137 98.4002 98.9937 99.0947 106.715C99.7892 114.437 104.116 120.376 108.758 119.981Z" fill="#F48D39"/>
<path d="M111.5 120C116.194 120 120 113.732 120 106C120 98.268 116.194 92 111.5 92C106.806 92 103 98.268 103 106C103 113.732 106.806 120 111.5 120Z" fill="#F17008"/>
</g>
<defs>
<clipPath id="clip0_326_82">
<rect width="150" height="150" fill="white"/>
</clipPath>
</defs>
</svg>
