<svg width="150" height="150" viewBox="0 0 150 150" fill="none" xmlns="http://www.w3.org/2000/svg">
<g clip-path="url(#clip0_324_319)">
<mask id="mask0_324_319" style="mask-type:alpha" maskUnits="userSpaceOnUse" x="35" y="30" width="72" height="85">
<mask id="path-1-inside-1_324_319" fill="white">
<path d="M47.9021 30.601C47.8842 30.5994 47.8662 30.5997 47.8483 30.6017C47.7748 30.6107 47.7057 30.6485 47.5887 30.7156C47.3547 30.8501 46.9917 31.2012 46.653 31.741C45.9757 32.8211 45.4288 34.5735 45.2574 35.9183C44.8853 38.8395 45.8925 40.3483 47.7257 41.7963C48.6542 42.5293 49.8121 43.1665 51.0521 43.7625C50.4523 41.2068 50.4599 38.6496 50.3591 36.4964C50.2813 34.8356 50.1303 33.4095 49.7822 32.4533C49.4381 31.5086 49.061 31.0271 48.1134 30.6545C48.0258 30.6253 47.9588 30.6055 47.9021 30.601ZM68.5525 32.7472C63.4562 32.77 58.3775 32.9692 53.4207 33.267C53.5861 34.2681 53.6491 35.2969 53.6977 36.3379C53.7066 36.5267 53.7148 36.7165 53.7232 36.9057C57.7512 40.6993 60.0383 40.9841 62.0466 40.7361C63.0709 40.6095 64.0762 40.2692 65.2274 39.9925C65.4172 39.9473 65.608 39.9063 65.7995 39.8694C67.3743 38.3253 69.4887 37.1279 71.9906 36.1236C73.4819 35.5237 75.0815 35.2458 76.6862 35.3078C78.2042 35.3644 79.6467 35.7135 80.9298 36.2483C82.1366 36.7513 83.2171 37.4018 84.1269 38.1612C84.5429 38.0452 84.9659 37.9876 85.3931 37.9803C86.7252 37.9579 88.0976 38.4085 89.4151 38.9872C91.5229 39.9132 93.6152 41.3492 95.3181 42.8967C95.7125 43.2552 96.0869 43.611 96.4384 43.9694L99.4127 43.3879L99.901 43.028C102.354 41.2202 104.131 39.1288 105.473 37.155C94.9522 33.9746 82.9321 32.8244 70.8563 32.7489C70.0883 32.744 69.3205 32.7436 68.5527 32.747L68.5525 32.7472ZM42.1834 34.1036C39.9496 34.2965 37.7166 34.4993 35.4845 34.712C35.695 36.8059 36.6484 38.7645 38.8372 40.804L39.4258 41.3526L43.5718 42.2516C42.3173 40.4743 41.5961 38.2038 41.942 35.4899C41.9994 35.04 42.0794 34.5748 42.1834 34.1036ZM76.1726 38.6606C75.2133 38.6711 74.2223 38.8511 73.2284 39.2501C70.6576 40.2819 68.7575 41.5037 67.6712 42.7718C66.585 44.0396 66.2017 45.2527 66.507 46.9562C66.5242 47.0515 66.5434 47.1454 66.563 47.2385L72.7998 48.5913L85.7346 46.0622C84.8465 44.9724 84.0623 43.8148 83.4603 42.5487C82.9982 41.5766 81.5454 40.1479 79.6516 39.3586C78.7046 38.9639 77.6666 38.7088 76.5817 38.6664C76.4454 38.661 76.309 38.659 76.1726 38.6606ZM86.7742 41.6243C87.4076 42.6299 88.1167 43.677 88.9321 44.6572C89.1299 44.881 89.3312 45.1017 89.5359 45.3191L92.3485 44.7694C91.032 43.6886 89.4821 42.689 88.0785 42.0723C87.6566 41.8873 87.2204 41.7375 86.7742 41.6243ZM54.373 41.7354C54.5476 42.803 54.7814 43.8146 55.0785 44.7475L63.0971 46.487C63.051 45.6258 63.1402 44.7627 63.3613 43.9294C63.0605 43.9891 62.7578 44.0382 62.4537 44.0766C60.2626 44.3472 57.5661 43.9016 54.373 41.7354ZM40.3347 44.9928L38.7782 59.3089L56.2683 59.7399C60.2299 56.1397 65.2937 53.9684 70.8407 53.9684C76.756 53.9684 82.1225 56.4378 86.1879 60.4764L100.668 60.8332L99.732 46.7542L72.7649 52.0268L40.3347 44.9928ZM70.8407 57.3342C60.0294 57.3342 51.1178 67.1957 51.1178 79.6096C51.1178 92.0235 60.0294 101.885 70.8407 101.885C81.6518 101.885 90.5635 92.0233 90.5635 79.6094C90.5635 67.1955 81.6518 57.3342 70.8407 57.3342ZM37.3369 62.6399L36.1706 74.3911C35.1393 84.7798 37.6999 95.399 41.7937 106.097L42.1019 106.903L41.6319 107.625C40.2213 109.792 37.9585 111.713 35.4 113.5C38.142 113.736 40.926 113.927 43.7404 114.08L47.997 108.656L50.6191 110.743L47.8474 114.275C50.4783 114.384 53.1317 114.462 55.8006 114.514L56.0073 109.695L59.3466 109.84L59.1437 114.568C62.1217 114.603 65.1149 114.607 68.1115 114.591V109.799H71.4538V114.567C74.5868 114.535 77.718 114.482 80.8388 114.414L80.115 109.905L83.4147 109.367L84.2124 114.338C87.2646 114.263 90.2818 114.174 93.291 114.086L90.71 109.744L93.5779 108.015L97.1197 113.974C100.183 113.882 103.217 113.789 106.2 113.705C103.836 111.505 101.485 109.174 100.178 106.326L99.9714 105.877L100.04 105.387C100.04 105.387 102.341 88.6255 102.367 80.5328C102.38 76.1685 101.953 70.1142 101.411 64.2184L89.0717 63.9145C92.1058 68.2666 93.9058 73.7219 93.9058 79.6094C93.9058 93.6591 83.6605 105.251 70.8407 105.251C58.0206 105.251 47.7755 93.6591 47.7755 79.6094C47.7755 73.3167 49.8319 67.5181 53.2536 63.0321L37.3369 62.6399ZM81.4425 70.3827C82.5908 70.356 83.7145 70.8021 84.6142 71.4616C85.8937 72.3991 86.904 73.7828 87.5536 75.407C88.853 78.6554 88.4937 83.1655 84.7195 86.1354C81.4382 88.7173 77.604 89.1903 74.1085 88.0884C73.7113 87.9621 73.3195 87.8189 72.9343 87.6593C70.5642 88.3942 67.8092 89.3543 64.9554 89.4744C61.8801 89.6038 58.5445 88.4762 56.3508 85.0993C55.362 83.5772 54.4913 81.6307 54.207 79.6489C54.0648 78.6579 54.0622 77.6371 54.4202 76.6356C54.7784 75.6342 55.609 74.6854 56.7166 74.2441L56.7435 74.2336L56.7706 74.2239C57.3844 74.0034 58.0297 73.8843 58.6813 73.8714C59.8803 73.8477 61.0256 74.1815 61.9921 74.729C63.4645 75.5629 64.6524 76.7858 65.8363 78.0552C65.9648 78.193 66.0933 78.3321 66.2218 78.4707C71.7312 78.7207 73.6542 77.441 75.0213 75.9389C75.7186 75.1727 76.2636 74.257 76.9603 73.2937C77.657 72.3303 78.5752 71.2785 79.9895 70.689C80.4506 70.4966 80.9433 70.3927 81.4423 70.3827H81.4425ZM81.6306 73.7344C81.5063 73.7287 81.3823 73.7507 81.2676 73.7991C80.655 74.0543 80.2259 74.4952 79.6618 75.2753C79.0975 76.0552 78.4684 77.1328 77.4854 78.2129C75.9938 79.8518 73.656 81.2768 69.8305 81.7179C71.1589 82.8461 72.5107 83.7635 73.8367 84.3787L76.2784 85.1719C78.4767 85.5924 80.5349 85.1565 82.6613 83.4834C85.2901 81.4148 85.3239 78.84 84.4536 76.6644C84.0185 75.5767 83.3032 74.6637 82.6476 74.183C82.2172 73.8675 81.8917 73.7449 81.6306 73.7344ZM58.8768 77.1936C58.5879 77.1977 58.2808 77.2613 57.925 77.3858C57.6858 77.4836 57.6524 77.5309 57.5648 77.7759C57.4738 78.0311 57.4242 78.5354 57.5148 79.1676C57.6962 80.4318 58.4106 82.122 59.1476 83.2564C60.7487 85.7212 62.4882 86.21 64.8159 86.112C65.995 86.0623 67.2863 85.7893 68.6139 85.4312C66.5092 83.8802 64.8653 81.9307 63.3999 80.3592C62.2695 79.1472 61.235 78.1616 60.3534 77.6622C59.9126 77.4126 59.5427 77.2579 59.1602 77.2093C59.0661 77.1974 58.9716 77.1922 58.8768 77.1936Z"/>
</mask>
<path d="M47.9021 30.601C47.8842 30.5994 47.8662 30.5997 47.8483 30.6017C47.7748 30.6107 47.7057 30.6485 47.5887 30.7156C47.3547 30.8501 46.9917 31.2012 46.653 31.741C45.9757 32.8211 45.4288 34.5735 45.2574 35.9183C44.8853 38.8395 45.8925 40.3483 47.7257 41.7963C48.6542 42.5293 49.8121 43.1665 51.0521 43.7625C50.4523 41.2068 50.4599 38.6496 50.3591 36.4964C50.2813 34.8356 50.1303 33.4095 49.7822 32.4533C49.4381 31.5086 49.061 31.0271 48.1134 30.6545C48.0258 30.6253 47.9588 30.6055 47.9021 30.601ZM68.5525 32.7472C63.4562 32.77 58.3775 32.9692 53.4207 33.267C53.5861 34.2681 53.6491 35.2969 53.6977 36.3379C53.7066 36.5267 53.7148 36.7165 53.7232 36.9057C57.7512 40.6993 60.0383 40.9841 62.0466 40.7361C63.0709 40.6095 64.0762 40.2692 65.2274 39.9925C65.4172 39.9473 65.608 39.9063 65.7995 39.8694C67.3743 38.3253 69.4887 37.1279 71.9906 36.1236C73.4819 35.5237 75.0815 35.2458 76.6862 35.3078C78.2042 35.3644 79.6467 35.7135 80.9298 36.2483C82.1366 36.7513 83.2171 37.4018 84.1269 38.1612C84.5429 38.0452 84.9659 37.9876 85.3931 37.9803C86.7252 37.9579 88.0976 38.4085 89.4151 38.9872C91.5229 39.9132 93.6152 41.3492 95.3181 42.8967C95.7125 43.2552 96.0869 43.611 96.4384 43.9694L99.4127 43.3879L99.901 43.028C102.354 41.2202 104.131 39.1288 105.473 37.155C94.9522 33.9746 82.9321 32.8244 70.8563 32.7489C70.0883 32.744 69.3205 32.7436 68.5527 32.747L68.5525 32.7472ZM42.1834 34.1036C39.9496 34.2965 37.7166 34.4993 35.4845 34.712C35.695 36.8059 36.6484 38.7645 38.8372 40.804L39.4258 41.3526L43.5718 42.2516C42.3173 40.4743 41.5961 38.2038 41.942 35.4899C41.9994 35.04 42.0794 34.5748 42.1834 34.1036ZM76.1726 38.6606C75.2133 38.6711 74.2223 38.8511 73.2284 39.2501C70.6576 40.2819 68.7575 41.5037 67.6712 42.7718C66.585 44.0396 66.2017 45.2527 66.507 46.9562C66.5242 47.0515 66.5434 47.1454 66.563 47.2385L72.7998 48.5913L85.7346 46.0622C84.8465 44.9724 84.0623 43.8148 83.4603 42.5487C82.9982 41.5766 81.5454 40.1479 79.6516 39.3586C78.7046 38.9639 77.6666 38.7088 76.5817 38.6664C76.4454 38.661 76.309 38.659 76.1726 38.6606ZM86.7742 41.6243C87.4076 42.6299 88.1167 43.677 88.9321 44.6572C89.1299 44.881 89.3312 45.1017 89.5359 45.3191L92.3485 44.7694C91.032 43.6886 89.4821 42.689 88.0785 42.0723C87.6566 41.8873 87.2204 41.7375 86.7742 41.6243ZM54.373 41.7354C54.5476 42.803 54.7814 43.8146 55.0785 44.7475L63.0971 46.487C63.051 45.6258 63.1402 44.7627 63.3613 43.9294C63.0605 43.9891 62.7578 44.0382 62.4537 44.0766C60.2626 44.3472 57.5661 43.9016 54.373 41.7354ZM40.3347 44.9928L38.7782 59.3089L56.2683 59.7399C60.2299 56.1397 65.2937 53.9684 70.8407 53.9684C76.756 53.9684 82.1225 56.4378 86.1879 60.4764L100.668 60.8332L99.732 46.7542L72.7649 52.0268L40.3347 44.9928ZM70.8407 57.3342C60.0294 57.3342 51.1178 67.1957 51.1178 79.6096C51.1178 92.0235 60.0294 101.885 70.8407 101.885C81.6518 101.885 90.5635 92.0233 90.5635 79.6094C90.5635 67.1955 81.6518 57.3342 70.8407 57.3342ZM37.3369 62.6399L36.1706 74.3911C35.1393 84.7798 37.6999 95.399 41.7937 106.097L42.1019 106.903L41.6319 107.625C40.2213 109.792 37.9585 111.713 35.4 113.5C38.142 113.736 40.926 113.927 43.7404 114.08L47.997 108.656L50.6191 110.743L47.8474 114.275C50.4783 114.384 53.1317 114.462 55.8006 114.514L56.0073 109.695L59.3466 109.84L59.1437 114.568C62.1217 114.603 65.1149 114.607 68.1115 114.591V109.799H71.4538V114.567C74.5868 114.535 77.718 114.482 80.8388 114.414L80.115 109.905L83.4147 109.367L84.2124 114.338C87.2646 114.263 90.2818 114.174 93.291 114.086L90.71 109.744L93.5779 108.015L97.1197 113.974C100.183 113.882 103.217 113.789 106.2 113.705C103.836 111.505 101.485 109.174 100.178 106.326L99.9714 105.877L100.04 105.387C100.04 105.387 102.341 88.6255 102.367 80.5328C102.38 76.1685 101.953 70.1142 101.411 64.2184L89.0717 63.9145C92.1058 68.2666 93.9058 73.7219 93.9058 79.6094C93.9058 93.6591 83.6605 105.251 70.8407 105.251C58.0206 105.251 47.7755 93.6591 47.7755 79.6094C47.7755 73.3167 49.8319 67.5181 53.2536 63.0321L37.3369 62.6399ZM81.4425 70.3827C82.5908 70.356 83.7145 70.8021 84.6142 71.4616C85.8937 72.3991 86.904 73.7828 87.5536 75.407C88.853 78.6554 88.4937 83.1655 84.7195 86.1354C81.4382 88.7173 77.604 89.1903 74.1085 88.0884C73.7113 87.9621 73.3195 87.8189 72.9343 87.6593C70.5642 88.3942 67.8092 89.3543 64.9554 89.4744C61.8801 89.6038 58.5445 88.4762 56.3508 85.0993C55.362 83.5772 54.4913 81.6307 54.207 79.6489C54.0648 78.6579 54.0622 77.6371 54.4202 76.6356C54.7784 75.6342 55.609 74.6854 56.7166 74.2441L56.7435 74.2336L56.7706 74.2239C57.3844 74.0034 58.0297 73.8843 58.6813 73.8714C59.8803 73.8477 61.0256 74.1815 61.9921 74.729C63.4645 75.5629 64.6524 76.7858 65.8363 78.0552C65.9648 78.193 66.0933 78.3321 66.2218 78.4707C71.7312 78.7207 73.6542 77.441 75.0213 75.9389C75.7186 75.1727 76.2636 74.257 76.9603 73.2937C77.657 72.3303 78.5752 71.2785 79.9895 70.689C80.4506 70.4966 80.9433 70.3927 81.4423 70.3827H81.4425ZM81.6306 73.7344C81.5063 73.7287 81.3823 73.7507 81.2676 73.7991C80.655 74.0543 80.2259 74.4952 79.6618 75.2753C79.0975 76.0552 78.4684 77.1328 77.4854 78.2129C75.9938 79.8518 73.656 81.2768 69.8305 81.7179C71.1589 82.8461 72.5107 83.7635 73.8367 84.3787L76.2784 85.1719C78.4767 85.5924 80.5349 85.1565 82.6613 83.4834C85.2901 81.4148 85.3239 78.84 84.4536 76.6644C84.0185 75.5767 83.3032 74.6637 82.6476 74.183C82.2172 73.8675 81.8917 73.7449 81.6306 73.7344ZM58.8768 77.1936C58.5879 77.1977 58.2808 77.2613 57.925 77.3858C57.6858 77.4836 57.6524 77.5309 57.5648 77.7759C57.4738 78.0311 57.4242 78.5354 57.5148 79.1676C57.6962 80.4318 58.4106 82.122 59.1476 83.2564C60.7487 85.7212 62.4882 86.21 64.8159 86.112C65.995 86.0623 67.2863 85.7893 68.6139 85.4312C66.5092 83.8802 64.8653 81.9307 63.3999 80.3592C62.2695 79.1472 61.235 78.1616 60.3534 77.6622C59.9126 77.4126 59.5427 77.2579 59.1602 77.2093C59.0661 77.1974 58.9716 77.1922 58.8768 77.1936Z" fill="#D9D9D9" stroke="black" stroke-width="2.4" mask="url(#path-1-inside-1_324_319)"/>
</mask>
<g mask="url(#mask0_324_319)">
<rect x="29.4" y="29.2" width="80.4" height="92.4" fill="#D2FFFF"/>
</g>
<mask id="path-3-inside-2_324_319" fill="white">
<path d="M47.714 30.001C47.6958 29.9994 47.6775 29.9997 47.6593 30.0018C47.5845 30.0109 47.5143 30.0491 47.3953 30.117C47.1574 30.2531 46.7882 30.6084 46.4438 31.1546C45.7549 32.2475 45.1988 34.0208 45.0245 35.3816C44.6461 38.3376 45.6703 39.8644 47.5346 41.3296C48.4788 42.0713 49.6564 42.7162 50.9174 43.3192C50.3074 40.733 50.3152 38.1454 50.2127 35.9666C50.1335 34.2861 49.98 32.843 49.626 31.8753C49.2761 30.9195 48.8925 30.4322 47.9289 30.0551C47.8398 30.0256 47.7716 30.0056 47.714 30.001ZM68.7144 32.1728C63.5317 32.1959 58.367 32.3974 53.3261 32.6988C53.4944 33.7118 53.5584 34.7529 53.6078 35.8062C53.6169 35.9973 53.6252 36.1893 53.6337 36.3808C57.73 40.2195 60.0559 40.5077 62.0983 40.2568C63.1399 40.1287 64.1622 39.7843 65.333 39.5043C65.526 39.4586 65.72 39.4171 65.9148 39.3798C67.5162 37.8173 69.6665 36.6056 72.2108 35.5894C73.7273 34.9824 75.3541 34.7011 76.986 34.7638C78.5297 34.8212 79.9967 35.1744 81.3015 35.7156C82.5287 36.2245 83.6276 36.8828 84.5528 37.6512C84.9758 37.5339 85.406 37.4756 85.8405 37.4682C87.1951 37.4455 88.5908 37.9015 89.9306 38.4871C92.0742 39.4241 94.2019 40.8772 95.9337 42.4431C96.3348 42.8058 96.7155 43.1659 97.0729 43.5286L100.098 42.9402L100.594 42.576C103.089 40.7467 104.896 38.6304 106.261 36.633C95.5615 33.4148 83.3377 32.2509 71.0572 32.1745C70.2762 32.1696 69.4954 32.1692 68.7146 32.1726L68.7144 32.1728ZM41.8984 33.5453C39.6267 33.7405 37.3558 33.9457 35.0859 34.161C35.3001 36.2798 36.2695 38.2618 38.4955 40.3255L39.0941 40.8806L43.3103 41.7904C42.0345 39.9919 41.3011 37.6943 41.6529 34.9481C41.7113 34.4929 41.7927 34.0221 41.8984 33.5453ZM76.4637 38.1566C75.4881 38.1672 74.4804 38.3494 73.4695 38.7531C70.8552 39.7972 68.9228 41.0335 67.8182 42.3167C66.7135 43.5996 66.3238 44.8272 66.6342 46.5509C66.6518 46.6474 66.6712 46.7424 66.6912 46.8366L73.0337 48.2055L86.1877 45.6463C85.2845 44.5436 84.4871 43.3722 83.8749 42.091C83.4049 41.1073 81.9275 39.6615 80.0016 38.8629C79.0386 38.4635 77.983 38.2054 76.8796 38.1624C76.7411 38.157 76.6023 38.155 76.4637 38.1566ZM87.245 41.1556C87.8891 42.1731 88.6102 43.2327 89.4394 44.2245C89.6405 44.4511 89.8453 44.6744 90.0535 44.8944L92.9137 44.3381C91.5749 43.2444 89.9987 42.2329 88.5714 41.6089C88.1423 41.4217 87.6987 41.2701 87.245 41.1556ZM54.2946 41.2679C54.4721 42.3483 54.7099 43.372 55.012 44.3159L63.1665 46.0762C63.1197 45.2047 63.2104 44.3313 63.4352 43.4881C63.1294 43.5485 62.8215 43.5982 62.5122 43.637C60.284 43.9108 57.5418 43.4599 54.2946 41.2679ZM40.0184 44.5642L38.4354 59.0507L56.222 59.4868C60.2508 55.8438 65.4004 53.6467 71.0414 53.6467C77.057 53.6467 82.5144 56.1454 86.6487 60.2321L101.374 60.5931L100.422 46.3465L72.9982 51.6819L40.0184 44.5642ZM71.0414 57.0525C60.0468 57.0525 50.9842 67.0314 50.9842 79.5931C50.9842 92.1548 60.0468 102.133 71.0414 102.133C82.0357 102.133 91.0985 92.1546 91.0985 79.5929C91.0985 67.0312 82.0357 57.0525 71.0414 57.0525ZM36.9697 62.4213L35.7837 74.3124C34.7349 84.8248 37.3389 95.5704 41.502 106.396L41.8155 107.212L41.3376 107.942C39.903 110.135 37.6019 112.078 35 113.887C37.7885 114.126 40.6196 114.319 43.4818 114.474L47.8105 108.986L50.477 111.097L47.6583 114.671C50.3339 114.781 53.0323 114.86 55.7464 114.913L55.9565 110.036L59.3525 110.183L59.1461 114.967C62.1746 115.003 65.2185 115.007 68.2659 114.991V110.142H71.6649V114.967C74.851 114.934 78.0353 114.88 81.209 114.812L80.4729 110.249L83.8285 109.705L84.6397 114.734C87.7437 114.659 90.812 114.569 93.8722 114.48L91.2475 110.086L94.164 108.337L97.7658 114.367C100.881 114.273 103.966 114.18 107 114.094C104.596 111.868 102.206 109.51 100.876 106.628L100.666 106.173L100.735 105.677C100.735 105.677 103.076 88.7163 103.102 80.5272C103.116 76.1111 102.681 69.9846 102.13 64.0186L89.5814 63.7111C92.6669 68.115 94.4975 73.6352 94.4975 79.5929C94.4975 93.8098 84.0785 105.539 71.0414 105.539C58.004 105.539 47.5853 93.8098 47.5853 79.5929C47.5853 73.2252 49.6766 67.3576 53.1562 62.8183L36.9697 62.4213ZM81.8229 70.2563C82.9906 70.2293 84.1334 70.6807 85.0483 71.3481C86.3496 72.2968 87.377 73.6969 88.0375 75.3404C89.359 78.6276 88.9936 83.1913 85.1554 86.1965C81.8185 88.8092 77.9194 89.2879 74.3646 88.1728C73.9606 88.045 73.5622 87.9001 73.1704 87.7386C70.7602 88.4822 67.9585 89.4538 65.0563 89.5753C61.9289 89.7062 58.5367 88.5653 56.3059 85.1481C55.3003 83.6079 54.4149 81.6383 54.1258 79.6328C53.9812 78.63 53.9785 77.5971 54.3426 76.5837C54.7069 75.5703 55.5515 74.6102 56.6779 74.1637L56.7053 74.1531L56.7328 74.1433C57.3571 73.9201 58.0132 73.7996 58.6759 73.7866C59.8952 73.7626 61.0599 74.1003 62.0428 74.6543C63.5402 75.4982 64.7482 76.7356 65.9522 78.0202C66.0828 78.1596 66.2135 78.3004 66.3442 78.4406C71.947 78.6936 73.9025 77.3986 75.2929 75.8787C76.002 75.1033 76.5562 74.1768 77.2647 73.2019C77.9732 72.2271 78.9069 71.1628 80.3453 70.5662C80.8142 70.3716 81.3152 70.2664 81.8227 70.2563H81.8229ZM82.0142 73.6479C81.8878 73.6421 81.7617 73.6645 81.645 73.7134C81.022 73.9717 80.5857 74.4178 80.012 75.2072C79.4381 75.9964 78.7984 77.0868 77.7987 78.1797C76.2818 79.8381 73.9044 81.2801 70.0141 81.7264C71.365 82.8681 72.7397 83.7964 74.0882 84.4189L76.5713 85.2215C78.8069 85.6471 80.8999 85.206 83.0624 83.513C85.7357 81.4197 85.77 78.8143 84.885 76.6128C84.4425 75.5122 83.7152 74.5883 83.0484 74.1018C82.6107 73.7826 82.2797 73.6585 82.0142 73.6479ZM58.8747 77.1483C58.5809 77.1525 58.2686 77.2168 57.9068 77.3428C57.6636 77.4418 57.6296 77.4896 57.5405 77.7375C57.4479 77.9958 57.3975 78.5061 57.4897 79.1458C57.6742 80.4251 58.4006 82.1353 59.1501 83.2833C60.7784 85.7774 62.5473 86.272 64.9145 86.1729C66.1136 86.1226 67.4267 85.8463 68.7769 85.484C66.6365 83.9145 64.9648 81.9418 63.4745 80.3516C62.3249 79.1252 61.2729 78.1278 60.3763 77.6225C59.928 77.3699 59.5519 77.2134 59.1629 77.1642C59.0673 77.1522 58.9711 77.1469 58.8747 77.1483Z"/>
</mask>
<path d="M47.714 30.001C47.6958 29.9994 47.6775 29.9997 47.6593 30.0018C47.5845 30.0109 47.5143 30.0491 47.3953 30.117C47.1574 30.2531 46.7882 30.6084 46.4438 31.1546C45.7549 32.2475 45.1988 34.0208 45.0245 35.3816C44.6461 38.3376 45.6703 39.8644 47.5346 41.3296C48.4788 42.0713 49.6564 42.7162 50.9174 43.3192C50.3074 40.733 50.3152 38.1454 50.2127 35.9666C50.1335 34.2861 49.98 32.843 49.626 31.8753C49.2761 30.9195 48.8925 30.4322 47.9289 30.0551C47.8398 30.0256 47.7716 30.0056 47.714 30.001ZM68.7144 32.1728C63.5317 32.1959 58.367 32.3974 53.3261 32.6988C53.4944 33.7118 53.5584 34.7529 53.6078 35.8062C53.6169 35.9973 53.6252 36.1893 53.6337 36.3808C57.73 40.2195 60.0559 40.5077 62.0983 40.2568C63.1399 40.1287 64.1622 39.7843 65.333 39.5043C65.526 39.4586 65.72 39.4171 65.9148 39.3798C67.5162 37.8173 69.6665 36.6056 72.2108 35.5894C73.7273 34.9824 75.3541 34.7011 76.986 34.7638C78.5297 34.8212 79.9967 35.1744 81.3015 35.7156C82.5287 36.2245 83.6276 36.8828 84.5528 37.6512C84.9758 37.5339 85.406 37.4756 85.8405 37.4682C87.1951 37.4455 88.5908 37.9015 89.9306 38.4871C92.0742 39.4241 94.2019 40.8772 95.9337 42.4431C96.3348 42.8058 96.7155 43.1659 97.0729 43.5286L100.098 42.9402L100.594 42.576C103.089 40.7467 104.896 38.6304 106.261 36.633C95.5615 33.4148 83.3377 32.2509 71.0572 32.1745C70.2762 32.1696 69.4954 32.1692 68.7146 32.1726L68.7144 32.1728ZM41.8984 33.5453C39.6267 33.7405 37.3558 33.9457 35.0859 34.161C35.3001 36.2798 36.2695 38.2618 38.4955 40.3255L39.0941 40.8806L43.3103 41.7904C42.0345 39.9919 41.3011 37.6943 41.6529 34.9481C41.7113 34.4929 41.7927 34.0221 41.8984 33.5453ZM76.4637 38.1566C75.4881 38.1672 74.4804 38.3494 73.4695 38.7531C70.8552 39.7972 68.9228 41.0335 67.8182 42.3167C66.7135 43.5996 66.3238 44.8272 66.6342 46.5509C66.6518 46.6474 66.6712 46.7424 66.6912 46.8366L73.0337 48.2055L86.1877 45.6463C85.2845 44.5436 84.4871 43.3722 83.8749 42.091C83.4049 41.1073 81.9275 39.6615 80.0016 38.8629C79.0386 38.4635 77.983 38.2054 76.8796 38.1624C76.7411 38.157 76.6023 38.155 76.4637 38.1566ZM87.245 41.1556C87.8891 42.1731 88.6102 43.2327 89.4394 44.2245C89.6405 44.4511 89.8453 44.6744 90.0535 44.8944L92.9137 44.3381C91.5749 43.2444 89.9987 42.2329 88.5714 41.6089C88.1423 41.4217 87.6987 41.2701 87.245 41.1556ZM54.2946 41.2679C54.4721 42.3483 54.7099 43.372 55.012 44.3159L63.1665 46.0762C63.1197 45.2047 63.2104 44.3313 63.4352 43.4881C63.1294 43.5485 62.8215 43.5982 62.5122 43.637C60.284 43.9108 57.5418 43.4599 54.2946 41.2679ZM40.0184 44.5642L38.4354 59.0507L56.222 59.4868C60.2508 55.8438 65.4004 53.6467 71.0414 53.6467C77.057 53.6467 82.5144 56.1454 86.6487 60.2321L101.374 60.5931L100.422 46.3465L72.9982 51.6819L40.0184 44.5642ZM71.0414 57.0525C60.0468 57.0525 50.9842 67.0314 50.9842 79.5931C50.9842 92.1548 60.0468 102.133 71.0414 102.133C82.0357 102.133 91.0985 92.1546 91.0985 79.5929C91.0985 67.0312 82.0357 57.0525 71.0414 57.0525ZM36.9697 62.4213L35.7837 74.3124C34.7349 84.8248 37.3389 95.5704 41.502 106.396L41.8155 107.212L41.3376 107.942C39.903 110.135 37.6019 112.078 35 113.887C37.7885 114.126 40.6196 114.319 43.4818 114.474L47.8105 108.986L50.477 111.097L47.6583 114.671C50.3339 114.781 53.0323 114.86 55.7464 114.913L55.9565 110.036L59.3525 110.183L59.1461 114.967C62.1746 115.003 65.2185 115.007 68.2659 114.991V110.142H71.6649V114.967C74.851 114.934 78.0353 114.88 81.209 114.812L80.4729 110.249L83.8285 109.705L84.6397 114.734C87.7437 114.659 90.812 114.569 93.8722 114.48L91.2475 110.086L94.164 108.337L97.7658 114.367C100.881 114.273 103.966 114.18 107 114.094C104.596 111.868 102.206 109.51 100.876 106.628L100.666 106.173L100.735 105.677C100.735 105.677 103.076 88.7163 103.102 80.5272C103.116 76.1111 102.681 69.9846 102.13 64.0186L89.5814 63.7111C92.6669 68.115 94.4975 73.6352 94.4975 79.5929C94.4975 93.8098 84.0785 105.539 71.0414 105.539C58.004 105.539 47.5853 93.8098 47.5853 79.5929C47.5853 73.2252 49.6766 67.3576 53.1562 62.8183L36.9697 62.4213ZM81.8229 70.2563C82.9906 70.2293 84.1334 70.6807 85.0483 71.3481C86.3496 72.2968 87.377 73.6969 88.0375 75.3404C89.359 78.6276 88.9936 83.1913 85.1554 86.1965C81.8185 88.8092 77.9194 89.2879 74.3646 88.1728C73.9606 88.045 73.5622 87.9001 73.1704 87.7386C70.7602 88.4822 67.9585 89.4538 65.0563 89.5753C61.9289 89.7062 58.5367 88.5653 56.3059 85.1481C55.3003 83.6079 54.4149 81.6383 54.1258 79.6328C53.9812 78.63 53.9785 77.5971 54.3426 76.5837C54.7069 75.5703 55.5515 74.6102 56.6779 74.1637L56.7053 74.1531L56.7328 74.1433C57.3571 73.9201 58.0132 73.7996 58.6759 73.7866C59.8952 73.7626 61.0599 74.1003 62.0428 74.6543C63.5402 75.4982 64.7482 76.7356 65.9522 78.0202C66.0828 78.1596 66.2135 78.3004 66.3442 78.4406C71.947 78.6936 73.9025 77.3986 75.2929 75.8787C76.002 75.1033 76.5562 74.1768 77.2647 73.2019C77.9732 72.2271 78.9069 71.1628 80.3453 70.5662C80.8142 70.3716 81.3152 70.2664 81.8227 70.2563H81.8229ZM82.0142 73.6479C81.8878 73.6421 81.7617 73.6645 81.645 73.7134C81.022 73.9717 80.5857 74.4178 80.012 75.2072C79.4381 75.9964 78.7984 77.0868 77.7987 78.1797C76.2818 79.8381 73.9044 81.2801 70.0141 81.7264C71.365 82.8681 72.7397 83.7964 74.0882 84.4189L76.5713 85.2215C78.8069 85.6471 80.8999 85.206 83.0624 83.513C85.7357 81.4197 85.77 78.8143 84.885 76.6128C84.4425 75.5122 83.7152 74.5883 83.0484 74.1018C82.6107 73.7826 82.2797 73.6585 82.0142 73.6479ZM58.8747 77.1483C58.5809 77.1525 58.2686 77.2168 57.9068 77.3428C57.6636 77.4418 57.6296 77.4896 57.5405 77.7375C57.4479 77.9958 57.3975 78.5061 57.4897 79.1458C57.6742 80.4251 58.4006 82.1353 59.1501 83.2833C60.7784 85.7774 62.5473 86.272 64.9145 86.1729C66.1136 86.1226 67.4267 85.8463 68.7769 85.484C66.6365 83.9145 64.9648 81.9418 63.4745 80.3516C62.3249 79.1252 61.2729 78.1278 60.3763 77.6225C59.928 77.3699 59.5519 77.2134 59.1629 77.1642C59.0673 77.1522 58.9711 77.1469 58.8747 77.1483Z" stroke="black" stroke-width="2.4" mask="url(#path-3-inside-2_324_319)"/>
<g clip-path="url(#clip1_324_319)">
<path d="M90.3362 111.027L90.337 111.026L102.545 88.7102L112.148 88.6159L119.608 94.6631L115.292 119.712C115.292 119.712 115.292 119.712 115.292 119.713C114.723 122.952 111.395 124.91 108.307 123.833L93.2497 118.58C90.1567 117.501 88.7602 113.89 90.3362 111.027Z" fill="#AEDDFF" stroke="black" stroke-width="1.2"/>
<path d="M100.331 100.711L100.331 100.711L94.8074 110.802C94.8074 110.802 94.8073 110.802 94.8073 110.803C93.7632 112.716 94.6867 115.112 96.7454 115.83L107.28 119.505C109.339 120.223 111.552 118.922 111.925 116.775L100.331 100.711ZM100.331 100.711L100.332 100.708C100.501 100.398 100.892 100.243 101.24 100.364L113.377 104.599C113.545 104.66 113.686 104.778 113.777 104.932C113.868 105.085 113.903 105.265 113.876 105.442L111.925 116.774L100.331 100.711Z" fill="#F4F4F4" stroke="black" stroke-width="1.2"/>
<path d="M104.693 81.4292L104.625 81.3815L104.546 81.3541C103.488 80.985 102.957 80.0749 103.074 79.1391C103.547 75.5452 107.193 73.2935 110.617 74.4881L122.119 78.5007C125.545 79.696 127.012 83.734 125.148 86.8404C124.659 87.6432 123.657 88.0214 122.619 87.6593L122.541 87.6319L122.458 87.6269L112.7 87.0406L104.693 81.4292Z" fill="#D3D3D3" stroke="black" stroke-width="1.2"/>
<path d="M110.837 77.2142C110.757 77.2531 110.664 77.2584 110.58 77.2289C110.495 77.1995 110.426 77.1377 110.387 77.0572C110.348 76.9767 110.343 76.8841 110.373 76.7997C110.402 76.7153 110.464 76.646 110.544 76.6072C110.625 76.5683 110.717 76.563 110.802 76.5925C110.886 76.6219 110.956 76.6837 110.994 76.7642C111.033 76.8447 111.039 76.9373 111.009 77.0217C110.98 77.1061 110.918 77.1754 110.837 77.2142ZM120.799 80.6895C120.718 80.7284 120.626 80.7337 120.541 80.7042C120.457 80.6748 120.388 80.613 120.349 80.5325C120.31 80.452 120.305 80.3594 120.334 80.275C120.363 80.1906 120.425 80.1213 120.506 80.0825C120.586 80.0436 120.679 80.0383 120.763 80.0678C120.848 80.0972 120.917 80.159 120.956 80.2395C120.995 80.32 121 80.4126 120.97 80.497C120.941 80.5814 120.879 80.6507 120.799 80.6895ZM112.614 80.7977C112.584 80.8821 112.523 80.9514 112.442 80.9902C112.362 81.0291 112.269 81.0344 112.185 81.0049C112.1 80.9755 112.031 80.9137 111.992 80.8332C111.953 80.7527 111.948 80.6601 111.977 80.5757C112.007 80.4913 112.069 80.4221 112.149 80.3832C112.23 80.3444 112.322 80.3391 112.407 80.3685C112.491 80.398 112.56 80.4597 112.599 80.5402C112.638 80.6207 112.643 80.7133 112.614 80.7977ZM117.349 82.4497C117.319 82.5341 117.258 82.6033 117.177 82.6422C117.097 82.681 117.004 82.6863 116.92 82.6569C116.835 82.6274 116.766 82.5656 116.727 82.4851C116.688 82.4046 116.683 82.312 116.712 82.2276C116.742 82.1432 116.804 82.074 116.884 82.0351C116.965 81.9963 117.057 81.991 117.142 82.0204C117.226 82.0499 117.295 82.1116 117.334 82.1921C117.373 82.2726 117.378 82.3653 117.349 82.4497ZM115.99 78.7594C115.96 78.8438 115.899 78.913 115.818 78.9519C115.738 78.9907 115.645 78.996 115.561 78.9666C115.476 78.9371 115.407 78.8754 115.368 78.7949C115.329 78.7144 115.324 78.6217 115.353 78.5373C115.383 78.4529 115.445 78.3837 115.525 78.3448C115.606 78.306 115.698 78.3007 115.783 78.3301C115.867 78.3596 115.936 78.4213 115.975 78.5018C116.014 78.5823 116.019 78.675 115.99 78.7594ZM104.717 82.6848L121.672 88.5999L119.913 93.6436L102.958 87.7285L104.717 82.6848Z" fill="#9B9B9B" stroke="black" stroke-width="1.2"/>
</g>
</g>
<defs>
<clipPath id="clip0_324_319">
<rect width="150" height="150" fill="white"/>
</clipPath>
<clipPath id="clip1_324_319">
<rect width="55.5276" height="55.5276" fill="white" transform="translate(91.4977 63.5067) rotate(19.2326)"/>
</clipPath>
</defs>
</svg>
