<svg width="150" height="150" viewBox="0 0 150 150" fill="none" xmlns="http://www.w3.org/2000/svg">
<mask id="mask0_324_319" style="mask-type:alpha" maskUnits="userSpaceOnUse" x="46" y="40" width="59" height="70">
<mask id="path-1-inside-1_324_319" fill="white">
<path d="M56.4184 40.0008C56.4035 39.9995 56.3885 39.9997 56.3736 40.0015C56.3123 40.009 56.2547 40.0404 56.1573 40.0964C55.9623 40.2084 55.6598 40.501 55.3775 40.9509C54.813 41.8509 54.3573 43.3113 54.2145 44.4319C53.9044 46.8663 54.7437 48.1236 56.2714 49.3303C57.0451 49.9411 58.0101 50.4721 59.0434 50.9687C58.5436 48.839 58.5499 46.708 58.4659 44.9137C58.4011 43.5297 58.2753 42.3413 57.9852 41.5444C57.6984 40.7572 57.3842 40.356 56.5945 40.0454C56.5215 40.0211 56.4656 40.0046 56.4184 40.0008ZM73.6271 41.7894C69.3801 41.8084 65.1479 41.9743 61.0172 42.2225C61.1551 43.0568 61.2076 43.9141 61.2481 44.7816C61.2555 44.939 61.2623 45.0971 61.2693 45.2548C64.626 48.4161 66.5319 48.6534 68.2055 48.4468C69.0591 48.3413 69.8968 48.0577 70.8562 47.8271C71.0143 47.7894 71.1733 47.7553 71.3329 47.7246C72.6453 46.4378 74.4072 45.4399 76.4922 44.603C77.7349 44.1031 79.068 43.8715 80.4052 43.9232C81.6701 43.9704 82.8723 44.2613 83.9415 44.7069C84.9472 45.1261 85.8476 45.6682 86.6058 46.301C86.9524 46.2044 87.3049 46.1564 87.6609 46.1503C88.771 46.1316 89.9147 46.5071 91.0125 46.9894C92.7691 47.761 94.5127 48.9577 95.9318 50.2473C96.2605 50.546 96.5724 50.8425 96.8653 51.1412L99.3439 50.6566L99.7509 50.3567C101.795 48.8502 103.276 47.1073 104.395 45.4625C95.6268 42.8122 85.6101 41.8537 75.5469 41.7908C74.9069 41.7867 74.2671 41.7864 73.6272 41.7892L73.6271 41.7894ZM51.6529 42.9197C49.7913 43.0804 47.9305 43.2494 46.0704 43.4267C46.2459 45.1716 47.0403 46.8038 48.8643 48.5033L49.3549 48.9605L52.8098 49.7097C51.7644 48.2286 51.1634 46.3365 51.4517 44.0749C51.4995 43.7 51.5662 43.3123 51.6529 42.9197ZM79.9772 46.7172C79.1778 46.7259 78.352 46.876 77.5237 47.2085C75.3813 48.0683 73.7979 49.0864 72.8927 50.1432C71.9875 51.1997 71.6681 52.2106 71.9225 53.6301C71.9369 53.7096 71.9528 53.7878 71.9692 53.8654L77.1665 54.9928L87.9455 52.8852C87.2054 51.977 86.5519 51.0124 86.0503 49.9573C85.6651 49.1472 84.4545 47.9566 82.8763 47.2989C82.0872 46.9699 81.2222 46.7574 80.318 46.722C80.2045 46.7176 80.0908 46.7158 79.9772 46.7172ZM88.8119 49.1869C89.3397 50.0249 89.9306 50.8975 90.6101 51.7143C90.7749 51.9009 90.9426 52.0848 91.1133 52.2659L93.4571 51.8078C92.36 50.9072 91.0684 50.0742 89.8988 49.5603C89.5472 49.4061 89.1837 49.2813 88.8119 49.1869ZM61.8109 49.2795C61.9563 50.1692 62.1511 51.0122 62.3987 51.7896L69.0809 53.2392C69.0425 52.5215 69.1168 51.8022 69.3011 51.1079C69.0505 51.1576 68.7982 51.1985 68.5447 51.2305C66.7188 51.456 64.4717 51.0847 61.8109 49.2795ZM50.1123 51.994L48.8151 63.9241L63.3903 64.2833C66.6916 61.2831 70.9114 59.4737 75.5339 59.4737C80.4633 59.4737 84.9354 61.5315 88.3232 64.897L100.39 65.1944L99.61 53.4619L77.1374 57.8557L50.1123 51.994ZM75.5339 62.2785C66.5245 62.2785 59.0982 70.4965 59.0982 80.8414C59.0982 91.1863 66.5245 99.4039 75.5339 99.4039C84.5431 99.4039 91.9696 91.1861 91.9696 80.8412C91.9696 70.4963 84.5431 62.2785 75.5339 62.2785ZM47.6141 66.6999L46.6422 76.4926C45.7827 85.1498 47.9166 93.9992 51.3281 102.914L51.5849 103.586L51.1933 104.187C50.0177 105.993 48.1321 107.594 46 109.083C48.285 109.28 50.605 109.439 52.9503 109.567L56.4975 105.047L58.6826 106.786L56.3728 109.729C58.5653 109.82 60.7765 109.885 63.0005 109.929L63.1727 105.912L65.9555 106.033L65.7864 109.973C68.2681 110.003 70.7624 110.006 73.2596 109.993V105.999H76.0448V109.973C78.6557 109.946 81.265 109.901 83.8657 109.845L83.2625 106.087L86.0122 105.64L86.677 109.781C89.2205 109.719 91.7349 109.645 94.2425 109.572L92.0917 105.954L94.4816 104.513L97.433 109.478C99.9859 109.401 102.514 109.325 105 109.254C103.03 107.42 101.071 105.478 99.9814 103.105L99.8095 102.731L99.8663 102.322C99.8663 102.322 101.785 88.3546 101.806 81.6107C101.817 77.9738 101.461 72.9285 101.009 68.0153L90.7264 67.7621C93.2548 71.3888 94.7549 75.9349 94.7549 80.8412C94.7549 92.5492 86.2171 102.209 75.5339 102.209C64.8505 102.209 56.3129 92.5492 56.3129 80.8412C56.3129 75.5972 58.0266 70.7651 60.878 67.0268L47.6141 66.6999ZM84.3688 73.1523C85.3256 73.13 86.2621 73.5018 87.0118 74.0513C88.0781 74.8326 88.92 75.9857 89.4613 77.3392C90.5442 80.0462 90.2447 83.8046 87.0996 86.2795C84.3652 88.4311 81.17 88.8253 78.2571 87.907C77.9261 87.8017 77.5996 87.6824 77.2785 87.5494C75.3035 88.1618 73.0077 88.9619 70.6295 89.062C68.0667 89.1698 65.287 88.2302 63.459 85.4161C62.635 84.1477 61.9094 82.5256 61.6725 80.8741C61.554 80.0482 61.5518 79.1976 61.8502 78.363C62.1487 77.5285 62.8408 76.7378 63.7638 76.3701L63.7863 76.3614L63.8088 76.3533C64.3204 76.1695 64.8581 76.0703 65.4011 76.0596C66.4002 76.0398 67.3546 76.3179 68.16 76.7741C69.3871 77.4691 70.377 78.4882 71.3636 79.546C71.4706 79.6609 71.5777 79.7768 71.6848 79.8923C76.276 80.1006 77.8785 79.0342 79.0178 77.7825C79.5988 77.1439 80.053 76.3809 80.6336 75.5781C81.2141 74.7753 81.9793 73.8988 83.1579 73.4075C83.5422 73.2472 83.9528 73.1606 84.3686 73.1523H84.3688ZM84.5255 75.9453C84.4219 75.9406 84.3186 75.959 84.223 75.9993C83.7125 76.2119 83.3549 76.5794 82.8848 77.2295C82.4146 77.8794 81.8903 78.7774 81.0712 79.6774C79.8282 81.0432 77.88 82.2307 74.6921 82.5982C75.7991 83.5385 76.9256 84.3029 78.0306 84.8156L80.0654 85.4766C81.8973 85.827 83.6124 85.4638 85.3844 84.0695C87.5751 82.3457 87.6032 80.2 86.878 78.387C86.5154 77.4806 85.9194 76.7198 85.373 76.3192C85.0143 76.0563 84.7431 75.9541 84.5255 75.9453ZM65.564 78.828C65.3233 78.8314 65.0673 78.8844 64.7708 78.9882C64.5715 79.0697 64.5437 79.1091 64.4707 79.3132C64.3948 79.5259 64.3535 79.9462 64.429 80.473C64.5802 81.5265 65.1755 82.935 65.7896 83.8803C67.1239 85.9344 68.5735 86.3417 70.5133 86.26C71.4959 86.2186 72.5719 85.9911 73.6783 85.6927C71.9243 84.4002 70.5544 82.7756 69.3333 81.4661C68.3912 80.456 67.5292 79.6347 66.7945 79.2185C66.4272 79.0105 66.1189 78.8816 65.8002 78.8411C65.7218 78.8312 65.643 78.8268 65.564 78.828Z"/>
</mask>
<path d="M56.4184 40.0008C56.4035 39.9995 56.3885 39.9997 56.3736 40.0015C56.3123 40.009 56.2547 40.0404 56.1573 40.0964C55.9623 40.2084 55.6598 40.501 55.3775 40.9509C54.813 41.8509 54.3573 43.3113 54.2145 44.4319C53.9044 46.8663 54.7437 48.1236 56.2714 49.3303C57.0451 49.9411 58.0101 50.4721 59.0434 50.9687C58.5436 48.839 58.5499 46.708 58.4659 44.9137C58.4011 43.5297 58.2753 42.3413 57.9852 41.5444C57.6984 40.7572 57.3842 40.356 56.5945 40.0454C56.5215 40.0211 56.4656 40.0046 56.4184 40.0008ZM73.6271 41.7894C69.3801 41.8084 65.1479 41.9743 61.0172 42.2225C61.1551 43.0568 61.2076 43.9141 61.2481 44.7816C61.2555 44.939 61.2623 45.0971 61.2693 45.2548C64.626 48.4161 66.5319 48.6534 68.2055 48.4468C69.0591 48.3413 69.8968 48.0577 70.8562 47.8271C71.0143 47.7894 71.1733 47.7553 71.3329 47.7246C72.6453 46.4378 74.4072 45.4399 76.4922 44.603C77.7349 44.1031 79.068 43.8715 80.4052 43.9232C81.6701 43.9704 82.8723 44.2613 83.9415 44.7069C84.9472 45.1261 85.8476 45.6682 86.6058 46.301C86.9524 46.2044 87.3049 46.1564 87.6609 46.1503C88.771 46.1316 89.9147 46.5071 91.0125 46.9894C92.7691 47.761 94.5127 48.9577 95.9318 50.2473C96.2605 50.546 96.5724 50.8425 96.8653 51.1412L99.3439 50.6566L99.7509 50.3567C101.795 48.8502 103.276 47.1073 104.395 45.4625C95.6268 42.8122 85.6101 41.8537 75.5469 41.7908C74.9069 41.7867 74.2671 41.7864 73.6272 41.7892L73.6271 41.7894ZM51.6529 42.9197C49.7913 43.0804 47.9305 43.2494 46.0704 43.4267C46.2459 45.1716 47.0403 46.8038 48.8643 48.5033L49.3549 48.9605L52.8098 49.7097C51.7644 48.2286 51.1634 46.3365 51.4517 44.0749C51.4995 43.7 51.5662 43.3123 51.6529 42.9197ZM79.9772 46.7172C79.1778 46.7259 78.352 46.876 77.5237 47.2085C75.3813 48.0683 73.7979 49.0864 72.8927 50.1432C71.9875 51.1997 71.6681 52.2106 71.9225 53.6301C71.9369 53.7096 71.9528 53.7878 71.9692 53.8654L77.1665 54.9928L87.9455 52.8852C87.2054 51.977 86.5519 51.0124 86.0503 49.9573C85.6651 49.1472 84.4545 47.9566 82.8763 47.2989C82.0872 46.9699 81.2222 46.7574 80.318 46.722C80.2045 46.7176 80.0908 46.7158 79.9772 46.7172ZM88.8119 49.1869C89.3397 50.0249 89.9306 50.8975 90.6101 51.7143C90.7749 51.9009 90.9426 52.0848 91.1133 52.2659L93.4571 51.8078C92.36 50.9072 91.0684 50.0742 89.8988 49.5603C89.5472 49.4061 89.1837 49.2813 88.8119 49.1869ZM61.8109 49.2795C61.9563 50.1692 62.1511 51.0122 62.3987 51.7896L69.0809 53.2392C69.0425 52.5215 69.1168 51.8022 69.3011 51.1079C69.0505 51.1576 68.7982 51.1985 68.5447 51.2305C66.7188 51.456 64.4717 51.0847 61.8109 49.2795ZM50.1123 51.994L48.8151 63.9241L63.3903 64.2833C66.6916 61.2831 70.9114 59.4737 75.5339 59.4737C80.4633 59.4737 84.9354 61.5315 88.3232 64.897L100.39 65.1944L99.61 53.4619L77.1374 57.8557L50.1123 51.994ZM75.5339 62.2785C66.5245 62.2785 59.0982 70.4965 59.0982 80.8414C59.0982 91.1863 66.5245 99.4039 75.5339 99.4039C84.5431 99.4039 91.9696 91.1861 91.9696 80.8412C91.9696 70.4963 84.5431 62.2785 75.5339 62.2785ZM47.6141 66.6999L46.6422 76.4926C45.7827 85.1498 47.9166 93.9992 51.3281 102.914L51.5849 103.586L51.1933 104.187C50.0177 105.993 48.1321 107.594 46 109.083C48.285 109.28 50.605 109.439 52.9503 109.567L56.4975 105.047L58.6826 106.786L56.3728 109.729C58.5653 109.82 60.7765 109.885 63.0005 109.929L63.1727 105.912L65.9555 106.033L65.7864 109.973C68.2681 110.003 70.7624 110.006 73.2596 109.993V105.999H76.0448V109.973C78.6557 109.946 81.265 109.901 83.8657 109.845L83.2625 106.087L86.0122 105.64L86.677 109.781C89.2205 109.719 91.7349 109.645 94.2425 109.572L92.0917 105.954L94.4816 104.513L97.433 109.478C99.9859 109.401 102.514 109.325 105 109.254C103.03 107.42 101.071 105.478 99.9814 103.105L99.8095 102.731L99.8663 102.322C99.8663 102.322 101.785 88.3546 101.806 81.6107C101.817 77.9738 101.461 72.9285 101.009 68.0153L90.7264 67.7621C93.2548 71.3888 94.7549 75.9349 94.7549 80.8412C94.7549 92.5492 86.2171 102.209 75.5339 102.209C64.8505 102.209 56.3129 92.5492 56.3129 80.8412C56.3129 75.5972 58.0266 70.7651 60.878 67.0268L47.6141 66.6999ZM84.3688 73.1523C85.3256 73.13 86.2621 73.5018 87.0118 74.0513C88.0781 74.8326 88.92 75.9857 89.4613 77.3392C90.5442 80.0462 90.2447 83.8046 87.0996 86.2795C84.3652 88.4311 81.17 88.8253 78.2571 87.907C77.9261 87.8017 77.5996 87.6824 77.2785 87.5494C75.3035 88.1618 73.0077 88.9619 70.6295 89.062C68.0667 89.1698 65.287 88.2302 63.459 85.4161C62.635 84.1477 61.9094 82.5256 61.6725 80.8741C61.554 80.0482 61.5518 79.1976 61.8502 78.363C62.1487 77.5285 62.8408 76.7378 63.7638 76.3701L63.7863 76.3614L63.8088 76.3533C64.3204 76.1695 64.8581 76.0703 65.4011 76.0596C66.4002 76.0398 67.3546 76.3179 68.16 76.7741C69.3871 77.4691 70.377 78.4882 71.3636 79.546C71.4706 79.6609 71.5777 79.7768 71.6848 79.8923C76.276 80.1006 77.8785 79.0342 79.0178 77.7825C79.5988 77.1439 80.053 76.3809 80.6336 75.5781C81.2141 74.7753 81.9793 73.8988 83.1579 73.4075C83.5422 73.2472 83.9528 73.1606 84.3686 73.1523H84.3688ZM84.5255 75.9453C84.4219 75.9406 84.3186 75.959 84.223 75.9993C83.7125 76.2119 83.3549 76.5794 82.8848 77.2295C82.4146 77.8794 81.8903 78.7774 81.0712 79.6774C79.8282 81.0432 77.88 82.2307 74.6921 82.5982C75.7991 83.5385 76.9256 84.3029 78.0306 84.8156L80.0654 85.4766C81.8973 85.827 83.6124 85.4638 85.3844 84.0695C87.5751 82.3457 87.6032 80.2 86.878 78.387C86.5154 77.4806 85.9194 76.7198 85.373 76.3192C85.0143 76.0563 84.7431 75.9541 84.5255 75.9453ZM65.564 78.828C65.3233 78.8314 65.0673 78.8844 64.7708 78.9882C64.5715 79.0697 64.5437 79.1091 64.4707 79.3132C64.3948 79.5259 64.3535 79.9462 64.429 80.473C64.5802 81.5265 65.1755 82.935 65.7896 83.8803C67.1239 85.9344 68.5735 86.3417 70.5133 86.26C71.4959 86.2186 72.5719 85.9911 73.6783 85.6927C71.9243 84.4002 70.5544 82.7756 69.3333 81.4661C68.3912 80.456 67.5292 79.6347 66.7945 79.2185C66.4272 79.0105 66.1189 78.8816 65.8002 78.8411C65.7218 78.8312 65.643 78.8268 65.564 78.828Z" fill="#D9D9D9" stroke="black" stroke-width="2" mask="url(#path-1-inside-1_324_319)"/>
</mask>
<g mask="url(#mask0_324_319)">
<rect x="41" y="38" width="67" height="77" fill="#D2FFFF"/>
</g>
<g clip-path="url(#clip0_324_319)">
<path d="M104.085 116.744L91.5378 112.366C88.6706 111.366 87.3727 108.019 88.8366 105.359L99.151 86.5059L107.626 86.4226L114.211 91.7598L110.564 112.924C110.037 115.926 106.952 117.744 104.085 116.744Z" fill="#AEDDFF"/>
<path d="M108.643 99.7722L98.5261 96.2426C98.0073 96.0616 97.4233 96.2867 97.1652 96.7633L92.5618 105.173C91.5434 107.039 92.4438 109.374 94.4508 110.075L103.23 113.137C105.237 113.838 107.395 112.569 107.758 110.475L109.385 101.026C109.426 100.764 109.375 100.495 109.239 100.266C109.104 100.037 108.893 99.8627 108.643 99.7722Z" fill="#F4F4F4"/>
<path d="M115.925 78.0229L106.34 74.6791C103.186 73.5787 99.828 75.6539 99.3932 78.9635C99.2645 79.9906 99.8592 80.9639 100.951 81.3449L107.74 86.1023L116.012 86.5993C117.086 86.9737 118.174 86.5878 118.713 85.7035C120.431 82.8417 119.079 79.1232 115.925 78.0229Z" fill="#D3D3D3"/>
<path d="M105.98 77.9073C106.175 77.9755 106.39 77.9633 106.576 77.8733C106.763 77.7832 106.906 77.6228 106.974 77.4273C107.042 77.2317 107.03 77.0171 106.94 76.8306C106.85 76.6441 106.69 76.501 106.494 76.4328C106.298 76.3645 106.084 76.3768 105.897 76.4668C105.711 76.5569 105.568 76.7173 105.5 76.9128C105.431 77.1084 105.444 77.323 105.534 77.5095C105.624 77.696 105.784 77.8391 105.98 77.9073ZM114.281 80.8034C114.476 80.8716 114.691 80.8594 114.877 80.7693C115.064 80.6793 115.207 80.5189 115.275 80.3233C115.343 80.1278 115.331 79.9132 115.241 79.7267C115.151 79.5402 114.991 79.3971 114.795 79.3288C114.6 79.2606 114.385 79.2729 114.199 79.3629C114.012 79.4529 113.869 79.6134 113.801 79.8089C113.732 80.0044 113.745 80.2191 113.835 80.4056C113.925 80.5921 114.085 80.7352 114.281 80.8034ZM108.311 80.5739C108.243 80.7695 108.1 80.9299 107.914 81.0199C107.727 81.11 107.512 81.1222 107.317 81.054C107.121 80.9858 106.961 80.8427 106.871 80.6562C106.781 80.4697 106.769 80.255 106.837 80.0595C106.905 79.864 107.048 79.7035 107.235 79.6135C107.421 79.5235 107.636 79.5112 107.831 79.5795C108.027 79.6477 108.187 79.7908 108.277 79.9773C108.367 80.1638 108.38 80.3784 108.311 80.5739ZM112.257 81.9505C112.189 82.1461 112.046 82.3065 111.859 82.3965C111.673 82.4866 111.458 82.4988 111.263 82.4306C111.067 82.3624 110.907 82.2193 110.817 82.0328C110.727 81.8463 110.714 81.6316 110.783 81.4361C110.851 81.2406 110.994 81.0801 111.18 80.9901C111.367 80.9001 111.582 80.8878 111.777 80.956C111.973 81.0243 112.133 81.1674 112.223 81.3539C112.313 81.5404 112.325 81.755 112.257 81.9505ZM111.125 78.8753C111.056 79.0708 110.913 79.2313 110.727 79.3213C110.54 79.4113 110.326 79.4236 110.13 79.3554C109.935 79.2871 109.774 79.144 109.684 78.9575C109.594 78.771 109.582 78.5564 109.65 78.3609C109.718 78.1653 109.861 78.0049 110.048 77.9149C110.234 77.8248 110.449 77.8126 110.645 77.8808C110.84 77.949 111.001 78.0921 111.091 78.2786C111.181 78.4651 111.193 78.6798 111.125 78.8753ZM100.951 81.345L116.025 86.6036L114.229 91.7509L99.1557 86.4922L100.951 81.345Z" fill="#9B9B9B"/>
</g>
<defs>
<clipPath id="clip0_324_319">
<rect width="46.273" height="46.273" fill="white" transform="translate(90.2425 66) rotate(19.2326)"/>
</clipPath>
</defs>
</svg>
