<svg width="150" height="150" viewBox="0 0 150 150" fill="none" xmlns="http://www.w3.org/2000/svg">
<path d="M78.4027 56.0969L78.3526 55.9551L78.6069 56.257C78.8252 56.4816 79.0054 56.4319 79.1596 56.257C79.1596 56.257 80.5073 54.8342 79.452 53.1776C78.8713 52.0805 76.5805 49.4705 75.375 48.6532C73.1963 47.3813 71.7906 48.3587 71.7906 48.3587C71.6164 48.4784 71.4883 48.6532 71.6164 48.8152L71.9568 49.1373C67.8458 49.8938 67.2411 52.8371 66.9728 54.1402L66.9287 54.3556L66.376 57.8897C66.1998 59.1229 66.9287 59.7911 68.2103 59.7911H72.3914C73.8491 59.8095 76.8848 59.8445 78.4027 56.0969Z" fill="#FF6056"/>
<path d="M64.9463 54.0942L64.4998 56.9509L50.3465 68.9852C49.8094 69.3975 49.4079 69.9393 49.1871 70.5498C49.1019 70.7776 49.0408 71.0124 49.0049 71.2511V72.1898C49.5475 72.2303 50.1743 72.1898 50.8571 72.0499L95.6397 60.2402C95.7887 60.2009 95.9455 60.1939 96.0979 60.2198C96.2503 60.2456 96.3941 60.3037 96.518 60.3893C96.6418 60.475 96.7423 60.5859 96.8116 60.7133C96.8809 60.8408 96.9171 60.9813 96.9172 61.1237V70.0436C96.9182 70.2411 96.8497 70.4337 96.722 70.5926C96.5943 70.7514 96.4141 70.8681 96.2084 70.9253C87.6379 73.2997 53.5664 82.7368 52.7294 82.9448C51.7823 83.1841 49.6857 83.5449 49.0049 83.4639V89.2344C49.6156 89.3117 50.2504 89.2896 50.8571 89.1405L95.6377 77.2222C95.7868 77.1825 95.9439 77.1753 96.0965 77.201C96.2492 77.2267 96.3933 77.2847 96.5174 77.3704C96.6415 77.4561 96.7422 77.5671 96.8116 77.6947C96.881 77.8223 96.9172 77.963 96.9172 78.1057V86.6685L98.4271 86.2709L98.4411 86.2672L98.5252 86.2414C99.0155 86.093 99.4873 85.8975 99.9329 85.6579C100.84 85.161 100.922 84.8241 100.922 84.7818V60.809C100.922 60.4077 100.742 59.6972 100.267 59.0106C99.8228 58.3664 99.192 57.8455 98.365 57.5933L81.8309 54.0298C81.7578 53.4234 81.5492 52.8375 81.2181 52.3088C80.8116 51.5707 80.0106 50.5601 79.2377 49.6913L99.3562 54.0261C99.4034 54.0368 99.4502 54.0491 99.4964 54.0629C101.429 54.6151 102.788 55.7931 103.647 57.0374C104.488 58.2523 104.927 59.6383 104.927 60.809V84.7818C104.927 86.9538 103.039 88.2422 101.977 88.822C101.234 89.2244 100.443 89.5474 99.6205 89.7847L99.5685 89.7994L99.5505 89.8031L99.5444 89.805C99.5444 89.805 99.2521 89.8823 99.5404 89.805L50.6649 102.701C50.6364 102.708 50.6077 102.715 50.5788 102.721C49.1511 103.034 47.5291 102.951 46.3336 101.828C45.2623 100.823 45 99.3893 45 98.11V71.1719L45.002 71.0725V71.0449L45.008 71.0044C45.02 70.8402 45.042 70.6767 45.0741 70.5148C45.1302 70.2166 45.2283 69.8135 45.4005 69.3515C45.8409 68.1558 46.6182 67.0888 47.6532 66.2592L66.4682 50.2638C66.4252 50.3203 66.3831 50.3773 66.342 50.435C65.4289 51.7345 65.1505 53.0911 65.0144 53.7555L65.0064 53.7997C64.9875 53.8981 64.9674 53.9962 64.9463 54.0942Z" fill="#FF6056"/>
<rect x="87" y="77" width="27" height="27" rx="13.5" fill="#ED5858" stroke="black" stroke-width="2"/>
<rect x="104.75" y="81.75" width="1.5" height="1.5" rx="0.75" fill="black" stroke="black" stroke-width="1.5"/>
<path d="M108.5 85C109.333 85.8333 111.5 92 107.5 96.5" stroke="black" stroke-width="2" stroke-linecap="round"/>
</svg>
