<svg width="150" height="150" viewBox="0 0 150 150" fill="none" xmlns="http://www.w3.org/2000/svg">
<mask id="mask0_324_295" style="mask-type:alpha" maskUnits="userSpaceOnUse" x="38" y="31" width="72" height="85">
<mask id="path-1-inside-1_324_295" fill="white">
<path d="M51.3088 31.5077C51.2909 31.5062 51.2729 31.5064 51.255 31.5085C51.1815 31.5175 51.1124 31.5552 50.9954 31.6224C50.7614 31.7568 50.3984 32.108 50.0597 32.6478C49.3824 33.7278 48.8355 35.4802 48.6641 36.825C48.292 39.7463 49.2992 41.255 51.1324 42.7031C52.0609 43.436 53.2188 44.0733 54.4588 44.6692C53.859 42.1135 53.8666 39.5563 53.7658 37.4032C53.688 35.7424 53.537 34.3162 53.1889 33.36C52.8448 32.4154 52.4677 31.9339 51.5201 31.5612C51.4325 31.532 51.3655 31.5122 51.3088 31.5077ZM71.9592 33.6539C66.8629 33.6768 61.7842 33.8759 56.8274 34.1738C56.9928 35.1749 57.0558 36.2037 57.1044 37.2446C57.1133 37.4335 57.1215 37.6232 57.1299 37.8125C61.1579 41.606 63.445 41.8908 65.4533 41.6429C66.4776 41.5163 67.4829 41.176 68.6341 40.8992C68.8239 40.854 69.0146 40.813 69.2062 40.7762C70.781 39.2321 72.8954 38.0346 75.3973 37.0303C76.8885 36.4305 78.4882 36.1525 80.0929 36.2145C81.6108 36.2712 83.0534 36.6203 84.3365 37.155C85.5433 37.658 86.6238 38.3085 87.5336 39.0679C87.9496 38.952 88.3725 38.8944 88.7998 38.8871C90.1319 38.8646 91.5043 39.3153 92.8217 39.894C94.9296 40.8199 97.0219 42.256 98.7248 43.8035C99.1192 44.1619 99.4936 44.5177 99.8451 44.8762L102.819 44.2947L103.308 43.9347C105.761 42.127 107.538 40.0355 108.88 38.0617C98.3588 34.8813 86.3387 33.7312 74.2629 33.6556C73.495 33.6508 72.7272 33.6504 71.9593 33.6538L71.9592 33.6539ZM45.5901 35.0103C43.3563 35.2032 41.1233 35.406 38.8912 35.6188C39.1018 37.7126 40.0551 39.6713 42.2439 41.7107L42.8325 42.2593L46.9785 43.1584C45.724 41.3811 45.0028 39.1105 45.3487 36.3966C45.4061 35.9467 45.4861 35.4815 45.5901 35.0103ZM79.5793 39.5673C78.62 39.5778 77.629 39.7579 76.6351 40.1569C74.0643 41.1887 72.1642 42.4104 71.0779 43.6786C69.9916 44.9463 69.6084 46.1595 69.9137 47.8629C69.9309 47.9583 69.9501 48.0521 69.9697 48.1452L76.2065 49.4981L89.1413 46.9689C88.2531 45.8792 87.469 44.7216 86.867 43.4555C86.4048 42.4833 84.9521 41.0546 83.0583 40.2653C82.1113 39.8706 81.0733 39.6156 79.9883 39.5731C79.8521 39.5678 79.7157 39.5657 79.5793 39.5673ZM90.1809 42.531C90.8143 43.5366 91.5234 44.5837 92.3388 45.5639C92.5365 45.7878 92.7378 46.0084 92.9426 46.2258L95.7552 45.6761C94.4387 44.5953 92.8888 43.5957 91.4852 42.979C91.0633 42.7941 90.6271 42.6442 90.1809 42.531ZM57.7797 42.6421C57.9543 43.7098 58.1881 44.7214 58.4852 45.6542L66.5038 47.3937C66.4577 46.5325 66.5469 45.6694 66.768 44.8362C66.4672 44.8959 66.1645 44.9449 65.8604 44.9833C63.6693 45.2539 60.9728 44.8083 57.7797 42.6421ZM43.7415 45.8996L42.1849 60.2156L59.675 60.6466C63.6366 57.0464 68.7004 54.8752 74.2473 54.8752C80.1627 54.8752 85.5292 57.3445 89.5945 61.3832L104.075 61.7399L103.139 47.6609L76.1716 52.9335L43.7415 45.8996ZM74.2473 58.2409C63.4361 58.2409 54.5245 68.1025 54.5245 80.5164C54.5245 92.9303 63.4361 102.791 74.2473 102.791C85.0584 102.791 93.9702 92.9301 93.9702 80.5162C93.9702 68.1023 85.0584 58.2409 74.2473 58.2409ZM40.7436 63.5466L39.5773 75.2978C38.546 85.6865 41.1066 96.3057 45.2004 107.004L45.5086 107.81L45.0386 108.532C43.628 110.698 41.3652 112.62 38.8067 114.407C41.5487 114.643 44.3327 114.834 47.1471 114.987L51.4037 109.563L54.0258 111.65L51.2541 115.182C53.885 115.29 56.5384 115.368 59.2073 115.421L59.414 110.601L62.7533 110.747L62.5503 115.474C65.5284 115.51 68.5216 115.514 71.5182 115.498V110.706H74.8605V115.474C77.9935 115.442 81.1247 115.388 84.2455 115.321L83.5217 110.811L86.8213 110.274L87.619 115.244C90.6713 115.169 93.6885 115.081 96.6977 114.993L94.1167 110.651L96.9846 108.922L100.526 114.881C103.59 114.788 106.623 114.696 109.607 114.611C107.243 112.411 104.892 110.081 103.584 107.233L103.378 106.784L103.446 106.293C103.446 106.293 105.748 89.5322 105.773 81.4395C105.787 77.0753 105.36 71.0209 104.818 65.1251L92.4784 64.8213C95.5125 69.1733 97.3125 74.6286 97.3125 80.5162C97.3125 94.5658 87.0672 106.157 74.2473 106.157C61.4273 106.157 51.1822 94.5658 51.1822 80.5162C51.1822 74.2234 53.2386 68.4248 56.6603 63.9389L40.7436 63.5466ZM84.8492 71.2894C85.9975 71.2627 87.1212 71.7088 88.0209 72.3683C89.3004 73.3059 90.3107 74.6896 90.9602 76.3137C92.2597 79.5622 91.9004 84.0722 88.1261 87.0421C84.8449 89.624 81.0107 90.0971 77.5152 88.9952C77.118 88.8688 76.7262 88.7256 76.3409 88.566C73.9709 89.3009 71.2159 90.2611 68.3621 90.3811C65.2868 90.5105 61.9511 89.383 59.7575 86.006C58.7687 84.484 57.898 82.5375 57.6137 80.5556C57.4715 79.5646 57.4689 78.5439 57.8269 77.5424C58.1851 76.5409 59.0157 75.5921 60.1233 75.1508L60.1502 75.1404L60.1773 75.1307C60.7911 74.9101 61.4364 74.7911 62.088 74.7782C63.287 74.7544 64.4323 75.0882 65.3987 75.6357C66.8712 76.4696 68.059 77.6925 69.243 78.962C69.3715 79.0998 69.5 79.2389 69.6284 79.3774C75.1379 79.6274 77.0608 78.3477 78.428 76.8457C79.1253 76.0794 79.6703 75.1637 80.3669 74.2004C81.0636 73.2371 81.9818 72.1853 83.3962 71.5957C83.8573 71.4033 84.35 71.2994 84.849 71.2894H84.8492ZM85.0373 74.6411C84.913 74.6354 84.789 74.6575 84.6743 74.7058C84.0617 74.9611 83.6326 75.402 83.0685 76.1821C82.5042 76.962 81.8751 78.0396 80.8921 79.1196C79.4005 80.7585 77.0627 82.1835 73.2372 82.6246C74.5656 83.7529 75.9174 84.6702 77.2434 85.2854L79.6851 86.0786C81.8834 86.4991 83.9416 86.0633 86.068 84.3901C88.6967 82.3215 88.7305 79.7467 87.8602 77.5712C87.4252 76.4835 86.7099 75.5704 86.0543 75.0897C85.6239 74.7743 85.2984 74.6516 85.0373 74.6411ZM62.2835 78.1003C61.9946 78.1045 61.6875 78.168 61.3317 78.2926C61.0925 78.3904 61.0591 78.4377 60.9715 78.6826C60.8805 78.9378 60.8309 79.4421 60.9215 80.0743C61.1029 81.3385 61.8173 83.0287 62.5542 84.1631C64.1554 86.628 65.8949 87.1167 68.2226 87.0188C69.4017 86.969 70.693 86.696 72.0206 86.3379C69.9159 84.7869 68.272 82.8374 66.8066 81.266C65.6762 80.054 64.6417 79.0684 63.7601 78.5689C63.3193 78.3193 62.9494 78.1647 62.5669 78.116C62.4728 78.1042 62.3783 78.0989 62.2835 78.1003Z"/>
</mask>
<path d="M51.3088 31.5077C51.2909 31.5062 51.2729 31.5064 51.255 31.5085C51.1815 31.5175 51.1124 31.5552 50.9954 31.6224C50.7614 31.7568 50.3984 32.108 50.0597 32.6478C49.3824 33.7278 48.8355 35.4802 48.6641 36.825C48.292 39.7463 49.2992 41.255 51.1324 42.7031C52.0609 43.436 53.2188 44.0733 54.4588 44.6692C53.859 42.1135 53.8666 39.5563 53.7658 37.4032C53.688 35.7424 53.537 34.3162 53.1889 33.36C52.8448 32.4154 52.4677 31.9339 51.5201 31.5612C51.4325 31.532 51.3655 31.5122 51.3088 31.5077ZM71.9592 33.6539C66.8629 33.6768 61.7842 33.8759 56.8274 34.1738C56.9928 35.1749 57.0558 36.2037 57.1044 37.2446C57.1133 37.4335 57.1215 37.6232 57.1299 37.8125C61.1579 41.606 63.445 41.8908 65.4533 41.6429C66.4776 41.5163 67.4829 41.176 68.6341 40.8992C68.8239 40.854 69.0146 40.813 69.2062 40.7762C70.781 39.2321 72.8954 38.0346 75.3973 37.0303C76.8885 36.4305 78.4882 36.1525 80.0929 36.2145C81.6108 36.2712 83.0534 36.6203 84.3365 37.155C85.5433 37.658 86.6238 38.3085 87.5336 39.0679C87.9496 38.952 88.3725 38.8944 88.7998 38.8871C90.1319 38.8646 91.5043 39.3153 92.8217 39.894C94.9296 40.8199 97.0219 42.256 98.7248 43.8035C99.1192 44.1619 99.4936 44.5177 99.8451 44.8762L102.819 44.2947L103.308 43.9347C105.761 42.127 107.538 40.0355 108.88 38.0617C98.3588 34.8813 86.3387 33.7312 74.2629 33.6556C73.495 33.6508 72.7272 33.6504 71.9593 33.6538L71.9592 33.6539ZM45.5901 35.0103C43.3563 35.2032 41.1233 35.406 38.8912 35.6188C39.1018 37.7126 40.0551 39.6713 42.2439 41.7107L42.8325 42.2593L46.9785 43.1584C45.724 41.3811 45.0028 39.1105 45.3487 36.3966C45.4061 35.9467 45.4861 35.4815 45.5901 35.0103ZM79.5793 39.5673C78.62 39.5778 77.629 39.7579 76.6351 40.1569C74.0643 41.1887 72.1642 42.4104 71.0779 43.6786C69.9916 44.9463 69.6084 46.1595 69.9137 47.8629C69.9309 47.9583 69.9501 48.0521 69.9697 48.1452L76.2065 49.4981L89.1413 46.9689C88.2531 45.8792 87.469 44.7216 86.867 43.4555C86.4048 42.4833 84.9521 41.0546 83.0583 40.2653C82.1113 39.8706 81.0733 39.6156 79.9883 39.5731C79.8521 39.5678 79.7157 39.5657 79.5793 39.5673ZM90.1809 42.531C90.8143 43.5366 91.5234 44.5837 92.3388 45.5639C92.5365 45.7878 92.7378 46.0084 92.9426 46.2258L95.7552 45.6761C94.4387 44.5953 92.8888 43.5957 91.4852 42.979C91.0633 42.7941 90.6271 42.6442 90.1809 42.531ZM57.7797 42.6421C57.9543 43.7098 58.1881 44.7214 58.4852 45.6542L66.5038 47.3937C66.4577 46.5325 66.5469 45.6694 66.768 44.8362C66.4672 44.8959 66.1645 44.9449 65.8604 44.9833C63.6693 45.2539 60.9728 44.8083 57.7797 42.6421ZM43.7415 45.8996L42.1849 60.2156L59.675 60.6466C63.6366 57.0464 68.7004 54.8752 74.2473 54.8752C80.1627 54.8752 85.5292 57.3445 89.5945 61.3832L104.075 61.7399L103.139 47.6609L76.1716 52.9335L43.7415 45.8996ZM74.2473 58.2409C63.4361 58.2409 54.5245 68.1025 54.5245 80.5164C54.5245 92.9303 63.4361 102.791 74.2473 102.791C85.0584 102.791 93.9702 92.9301 93.9702 80.5162C93.9702 68.1023 85.0584 58.2409 74.2473 58.2409ZM40.7436 63.5466L39.5773 75.2978C38.546 85.6865 41.1066 96.3057 45.2004 107.004L45.5086 107.81L45.0386 108.532C43.628 110.698 41.3652 112.62 38.8067 114.407C41.5487 114.643 44.3327 114.834 47.1471 114.987L51.4037 109.563L54.0258 111.65L51.2541 115.182C53.885 115.29 56.5384 115.368 59.2073 115.421L59.414 110.601L62.7533 110.747L62.5503 115.474C65.5284 115.51 68.5216 115.514 71.5182 115.498V110.706H74.8605V115.474C77.9935 115.442 81.1247 115.388 84.2455 115.321L83.5217 110.811L86.8213 110.274L87.619 115.244C90.6713 115.169 93.6885 115.081 96.6977 114.993L94.1167 110.651L96.9846 108.922L100.526 114.881C103.59 114.788 106.623 114.696 109.607 114.611C107.243 112.411 104.892 110.081 103.584 107.233L103.378 106.784L103.446 106.293C103.446 106.293 105.748 89.5322 105.773 81.4395C105.787 77.0753 105.36 71.0209 104.818 65.1251L92.4784 64.8213C95.5125 69.1733 97.3125 74.6286 97.3125 80.5162C97.3125 94.5658 87.0672 106.157 74.2473 106.157C61.4273 106.157 51.1822 94.5658 51.1822 80.5162C51.1822 74.2234 53.2386 68.4248 56.6603 63.9389L40.7436 63.5466ZM84.8492 71.2894C85.9975 71.2627 87.1212 71.7088 88.0209 72.3683C89.3004 73.3059 90.3107 74.6896 90.9602 76.3137C92.2597 79.5622 91.9004 84.0722 88.1261 87.0421C84.8449 89.624 81.0107 90.0971 77.5152 88.9952C77.118 88.8688 76.7262 88.7256 76.3409 88.566C73.9709 89.3009 71.2159 90.2611 68.3621 90.3811C65.2868 90.5105 61.9511 89.383 59.7575 86.006C58.7687 84.484 57.898 82.5375 57.6137 80.5556C57.4715 79.5646 57.4689 78.5439 57.8269 77.5424C58.1851 76.5409 59.0157 75.5921 60.1233 75.1508L60.1502 75.1404L60.1773 75.1307C60.7911 74.9101 61.4364 74.7911 62.088 74.7782C63.287 74.7544 64.4323 75.0882 65.3987 75.6357C66.8712 76.4696 68.059 77.6925 69.243 78.962C69.3715 79.0998 69.5 79.2389 69.6284 79.3774C75.1379 79.6274 77.0608 78.3477 78.428 76.8457C79.1253 76.0794 79.6703 75.1637 80.3669 74.2004C81.0636 73.2371 81.9818 72.1853 83.3962 71.5957C83.8573 71.4033 84.35 71.2994 84.849 71.2894H84.8492ZM85.0373 74.6411C84.913 74.6354 84.789 74.6575 84.6743 74.7058C84.0617 74.9611 83.6326 75.402 83.0685 76.1821C82.5042 76.962 81.8751 78.0396 80.8921 79.1196C79.4005 80.7585 77.0627 82.1835 73.2372 82.6246C74.5656 83.7529 75.9174 84.6702 77.2434 85.2854L79.6851 86.0786C81.8834 86.4991 83.9416 86.0633 86.068 84.3901C88.6967 82.3215 88.7305 79.7467 87.8602 77.5712C87.4252 76.4835 86.7099 75.5704 86.0543 75.0897C85.6239 74.7743 85.2984 74.6516 85.0373 74.6411ZM62.2835 78.1003C61.9946 78.1045 61.6875 78.168 61.3317 78.2926C61.0925 78.3904 61.0591 78.4377 60.9715 78.6826C60.8805 78.9378 60.8309 79.4421 60.9215 80.0743C61.1029 81.3385 61.8173 83.0287 62.5542 84.1631C64.1554 86.628 65.8949 87.1167 68.2226 87.0188C69.4017 86.969 70.693 86.696 72.0206 86.3379C69.9159 84.7869 68.272 82.8374 66.8066 81.266C65.6762 80.054 64.6417 79.0684 63.7601 78.5689C63.3193 78.3193 62.9494 78.1647 62.5669 78.116C62.4728 78.1042 62.3783 78.0989 62.2835 78.1003Z" fill="#D9D9D9" stroke="black" stroke-width="2.4" mask="url(#path-1-inside-1_324_295)"/>
</mask>
<g mask="url(#mask0_324_295)">
<rect x="32.8067" y="29.1067" width="80.4" height="92.4" fill="#F8FFA2"/>
</g>
<mask id="path-3-inside-2_324_295" fill="white">
<path d="M51.3088 31.5077C51.2909 31.5062 51.2729 31.5064 51.255 31.5085C51.1815 31.5175 51.1124 31.5552 50.9954 31.6224C50.7614 31.7568 50.3984 32.108 50.0597 32.6478C49.3824 33.7278 48.8355 35.4802 48.6641 36.825C48.292 39.7463 49.2992 41.255 51.1324 42.7031C52.0609 43.436 53.2188 44.0733 54.4588 44.6692C53.859 42.1135 53.8666 39.5563 53.7658 37.4032C53.688 35.7424 53.537 34.3162 53.1889 33.36C52.8448 32.4154 52.4677 31.9339 51.5201 31.5612C51.4325 31.532 51.3655 31.5122 51.3088 31.5077ZM71.9592 33.6539C66.8629 33.6768 61.7842 33.8759 56.8274 34.1738C56.9928 35.1749 57.0558 36.2037 57.1044 37.2446C57.1133 37.4335 57.1215 37.6232 57.1299 37.8125C61.1579 41.606 63.445 41.8908 65.4533 41.6429C66.4776 41.5163 67.4829 41.176 68.6341 40.8992C68.8239 40.854 69.0146 40.813 69.2062 40.7762C70.781 39.2321 72.8954 38.0346 75.3973 37.0303C76.8885 36.4305 78.4882 36.1525 80.0929 36.2145C81.6108 36.2712 83.0534 36.6203 84.3365 37.155C85.5433 37.658 86.6238 38.3085 87.5336 39.0679C87.9496 38.952 88.3725 38.8944 88.7998 38.8871C90.1319 38.8646 91.5043 39.3153 92.8217 39.894C94.9296 40.8199 97.0219 42.256 98.7248 43.8035C99.1192 44.1619 99.4936 44.5177 99.8451 44.8762L102.819 44.2947L103.308 43.9347C105.761 42.127 107.538 40.0355 108.88 38.0617C98.3588 34.8813 86.3387 33.7312 74.2629 33.6556C73.495 33.6508 72.7272 33.6504 71.9593 33.6538L71.9592 33.6539ZM45.5901 35.0103C43.3563 35.2032 41.1233 35.406 38.8912 35.6188C39.1018 37.7126 40.0551 39.6713 42.2439 41.7107L42.8325 42.2593L46.9785 43.1584C45.724 41.3811 45.0028 39.1105 45.3487 36.3966C45.4061 35.9467 45.4861 35.4815 45.5901 35.0103ZM79.5793 39.5673C78.62 39.5778 77.629 39.7579 76.6351 40.1569C74.0643 41.1887 72.1642 42.4104 71.0779 43.6786C69.9916 44.9463 69.6084 46.1595 69.9137 47.8629C69.9309 47.9583 69.9501 48.0521 69.9697 48.1452L76.2065 49.4981L89.1413 46.9689C88.2531 45.8792 87.469 44.7216 86.867 43.4555C86.4048 42.4833 84.9521 41.0546 83.0583 40.2653C82.1113 39.8706 81.0733 39.6156 79.9883 39.5731C79.8521 39.5678 79.7157 39.5657 79.5793 39.5673ZM90.1809 42.531C90.8143 43.5366 91.5234 44.5837 92.3388 45.5639C92.5365 45.7878 92.7378 46.0084 92.9426 46.2258L95.7552 45.6761C94.4387 44.5953 92.8888 43.5957 91.4852 42.979C91.0633 42.7941 90.6271 42.6442 90.1809 42.531ZM57.7797 42.6421C57.9543 43.7098 58.1881 44.7214 58.4852 45.6542L66.5038 47.3937C66.4577 46.5325 66.5469 45.6694 66.768 44.8362C66.4672 44.8959 66.1645 44.9449 65.8604 44.9833C63.6693 45.2539 60.9728 44.8083 57.7797 42.6421ZM43.7415 45.8996L42.1849 60.2156L59.675 60.6466C63.6366 57.0464 68.7004 54.8752 74.2473 54.8752C80.1627 54.8752 85.5292 57.3445 89.5945 61.3832L104.075 61.7399L103.139 47.6609L76.1716 52.9335L43.7415 45.8996ZM74.2473 58.2409C63.4361 58.2409 54.5245 68.1025 54.5245 80.5164C54.5245 92.9303 63.4361 102.791 74.2473 102.791C85.0584 102.791 93.9702 92.9301 93.9702 80.5162C93.9702 68.1023 85.0584 58.2409 74.2473 58.2409ZM40.7436 63.5466L39.5773 75.2978C38.546 85.6865 41.1066 96.3057 45.2004 107.004L45.5086 107.81L45.0386 108.532C43.628 110.698 41.3652 112.62 38.8067 114.407C41.5487 114.643 44.3327 114.834 47.1471 114.987L51.4037 109.563L54.0258 111.65L51.2541 115.182C53.885 115.29 56.5384 115.368 59.2073 115.421L59.414 110.601L62.7533 110.747L62.5503 115.474C65.5284 115.51 68.5216 115.514 71.5182 115.498V110.706H74.8605V115.474C77.9935 115.442 81.1247 115.388 84.2455 115.321L83.5217 110.811L86.8213 110.274L87.619 115.244C90.6713 115.169 93.6885 115.081 96.6977 114.993L94.1167 110.651L96.9846 108.922L100.526 114.881C103.59 114.788 106.623 114.696 109.607 114.611C107.243 112.411 104.892 110.081 103.584 107.233L103.378 106.784L103.446 106.293C103.446 106.293 105.748 89.5322 105.773 81.4395C105.787 77.0753 105.36 71.0209 104.818 65.1251L92.4784 64.8213C95.5125 69.1733 97.3125 74.6286 97.3125 80.5162C97.3125 94.5658 87.0672 106.157 74.2473 106.157C61.4273 106.157 51.1822 94.5658 51.1822 80.5162C51.1822 74.2234 53.2386 68.4248 56.6603 63.9389L40.7436 63.5466ZM84.8492 71.2894C85.9975 71.2627 87.1212 71.7088 88.0209 72.3683C89.3004 73.3059 90.3107 74.6896 90.9602 76.3137C92.2597 79.5622 91.9004 84.0722 88.1261 87.0421C84.8449 89.624 81.0107 90.0971 77.5152 88.9952C77.118 88.8688 76.7262 88.7256 76.3409 88.566C73.9709 89.3009 71.2159 90.2611 68.3621 90.3811C65.2868 90.5105 61.9511 89.383 59.7575 86.006C58.7687 84.484 57.898 82.5375 57.6137 80.5556C57.4715 79.5646 57.4689 78.5439 57.8269 77.5424C58.1851 76.5409 59.0157 75.5921 60.1233 75.1508L60.1502 75.1404L60.1773 75.1307C60.7911 74.9101 61.4364 74.7911 62.088 74.7782C63.287 74.7544 64.4323 75.0882 65.3987 75.6357C66.8712 76.4696 68.059 77.6925 69.243 78.962C69.3715 79.0998 69.5 79.2389 69.6284 79.3774C75.1379 79.6274 77.0608 78.3477 78.428 76.8457C79.1253 76.0794 79.6703 75.1637 80.3669 74.2004C81.0636 73.2371 81.9818 72.1853 83.3962 71.5957C83.8573 71.4033 84.35 71.2994 84.849 71.2894H84.8492ZM85.0373 74.6411C84.913 74.6354 84.789 74.6575 84.6743 74.7058C84.0617 74.9611 83.6326 75.402 83.0685 76.1821C82.5042 76.962 81.8751 78.0396 80.8921 79.1196C79.4005 80.7585 77.0627 82.1835 73.2372 82.6246C74.5656 83.7529 75.9174 84.6702 77.2434 85.2854L79.6851 86.0786C81.8834 86.4991 83.9416 86.0633 86.068 84.3901C88.6967 82.3215 88.7305 79.7467 87.8602 77.5712C87.4252 76.4835 86.7099 75.5704 86.0543 75.0897C85.6239 74.7743 85.2984 74.6516 85.0373 74.6411ZM62.2835 78.1003C61.9946 78.1045 61.6875 78.168 61.3317 78.2926C61.0925 78.3904 61.0591 78.4377 60.9715 78.6826C60.8805 78.9378 60.8309 79.4421 60.9215 80.0743C61.1029 81.3385 61.8173 83.0287 62.5542 84.1631C64.1554 86.628 65.8949 87.1167 68.2226 87.0188C69.4017 86.969 70.693 86.696 72.0206 86.3379C69.9159 84.7869 68.272 82.8374 66.8066 81.266C65.6762 80.054 64.6417 79.0684 63.7601 78.5689C63.3193 78.3193 62.9494 78.1647 62.5669 78.116C62.4728 78.1042 62.3783 78.0989 62.2835 78.1003Z"/>
</mask>
<path d="M51.3088 31.5077C51.2909 31.5062 51.2729 31.5064 51.255 31.5085C51.1815 31.5175 51.1124 31.5552 50.9954 31.6224C50.7614 31.7568 50.3984 32.108 50.0597 32.6478C49.3824 33.7278 48.8355 35.4802 48.6641 36.825C48.292 39.7463 49.2992 41.255 51.1324 42.7031C52.0609 43.436 53.2188 44.0733 54.4588 44.6692C53.859 42.1135 53.8666 39.5563 53.7658 37.4032C53.688 35.7424 53.537 34.3162 53.1889 33.36C52.8448 32.4154 52.4677 31.9339 51.5201 31.5612C51.4325 31.532 51.3655 31.5122 51.3088 31.5077ZM71.9592 33.6539C66.8629 33.6768 61.7842 33.8759 56.8274 34.1738C56.9928 35.1749 57.0558 36.2037 57.1044 37.2446C57.1133 37.4335 57.1215 37.6232 57.1299 37.8125C61.1579 41.606 63.445 41.8908 65.4533 41.6429C66.4776 41.5163 67.4829 41.176 68.6341 40.8992C68.8239 40.854 69.0146 40.813 69.2062 40.7762C70.781 39.2321 72.8954 38.0346 75.3973 37.0303C76.8885 36.4305 78.4882 36.1525 80.0929 36.2145C81.6108 36.2712 83.0534 36.6203 84.3365 37.155C85.5433 37.658 86.6238 38.3085 87.5336 39.0679C87.9496 38.952 88.3725 38.8944 88.7998 38.8871C90.1319 38.8646 91.5043 39.3153 92.8217 39.894C94.9296 40.8199 97.0219 42.256 98.7248 43.8035C99.1192 44.1619 99.4936 44.5177 99.8451 44.8762L102.819 44.2947L103.308 43.9347C105.761 42.127 107.538 40.0355 108.88 38.0617C98.3588 34.8813 86.3387 33.7312 74.2629 33.6556C73.495 33.6508 72.7272 33.6504 71.9593 33.6538L71.9592 33.6539ZM45.5901 35.0103C43.3563 35.2032 41.1233 35.406 38.8912 35.6188C39.1018 37.7126 40.0551 39.6713 42.2439 41.7107L42.8325 42.2593L46.9785 43.1584C45.724 41.3811 45.0028 39.1105 45.3487 36.3966C45.4061 35.9467 45.4861 35.4815 45.5901 35.0103ZM79.5793 39.5673C78.62 39.5778 77.629 39.7579 76.6351 40.1569C74.0643 41.1887 72.1642 42.4104 71.0779 43.6786C69.9916 44.9463 69.6084 46.1595 69.9137 47.8629C69.9309 47.9583 69.9501 48.0521 69.9697 48.1452L76.2065 49.4981L89.1413 46.9689C88.2531 45.8792 87.469 44.7216 86.867 43.4555C86.4048 42.4833 84.9521 41.0546 83.0583 40.2653C82.1113 39.8706 81.0733 39.6156 79.9883 39.5731C79.8521 39.5678 79.7157 39.5657 79.5793 39.5673ZM90.1809 42.531C90.8143 43.5366 91.5234 44.5837 92.3388 45.5639C92.5365 45.7878 92.7378 46.0084 92.9426 46.2258L95.7552 45.6761C94.4387 44.5953 92.8888 43.5957 91.4852 42.979C91.0633 42.7941 90.6271 42.6442 90.1809 42.531ZM57.7797 42.6421C57.9543 43.7098 58.1881 44.7214 58.4852 45.6542L66.5038 47.3937C66.4577 46.5325 66.5469 45.6694 66.768 44.8362C66.4672 44.8959 66.1645 44.9449 65.8604 44.9833C63.6693 45.2539 60.9728 44.8083 57.7797 42.6421ZM43.7415 45.8996L42.1849 60.2156L59.675 60.6466C63.6366 57.0464 68.7004 54.8752 74.2473 54.8752C80.1627 54.8752 85.5292 57.3445 89.5945 61.3832L104.075 61.7399L103.139 47.6609L76.1716 52.9335L43.7415 45.8996ZM74.2473 58.2409C63.4361 58.2409 54.5245 68.1025 54.5245 80.5164C54.5245 92.9303 63.4361 102.791 74.2473 102.791C85.0584 102.791 93.9702 92.9301 93.9702 80.5162C93.9702 68.1023 85.0584 58.2409 74.2473 58.2409ZM40.7436 63.5466L39.5773 75.2978C38.546 85.6865 41.1066 96.3057 45.2004 107.004L45.5086 107.81L45.0386 108.532C43.628 110.698 41.3652 112.62 38.8067 114.407C41.5487 114.643 44.3327 114.834 47.1471 114.987L51.4037 109.563L54.0258 111.65L51.2541 115.182C53.885 115.29 56.5384 115.368 59.2073 115.421L59.414 110.601L62.7533 110.747L62.5503 115.474C65.5284 115.51 68.5216 115.514 71.5182 115.498V110.706H74.8605V115.474C77.9935 115.442 81.1247 115.388 84.2455 115.321L83.5217 110.811L86.8213 110.274L87.619 115.244C90.6713 115.169 93.6885 115.081 96.6977 114.993L94.1167 110.651L96.9846 108.922L100.526 114.881C103.59 114.788 106.623 114.696 109.607 114.611C107.243 112.411 104.892 110.081 103.584 107.233L103.378 106.784L103.446 106.293C103.446 106.293 105.748 89.5322 105.773 81.4395C105.787 77.0753 105.36 71.0209 104.818 65.1251L92.4784 64.8213C95.5125 69.1733 97.3125 74.6286 97.3125 80.5162C97.3125 94.5658 87.0672 106.157 74.2473 106.157C61.4273 106.157 51.1822 94.5658 51.1822 80.5162C51.1822 74.2234 53.2386 68.4248 56.6603 63.9389L40.7436 63.5466ZM84.8492 71.2894C85.9975 71.2627 87.1212 71.7088 88.0209 72.3683C89.3004 73.3059 90.3107 74.6896 90.9602 76.3137C92.2597 79.5622 91.9004 84.0722 88.1261 87.0421C84.8449 89.624 81.0107 90.0971 77.5152 88.9952C77.118 88.8688 76.7262 88.7256 76.3409 88.566C73.9709 89.3009 71.2159 90.2611 68.3621 90.3811C65.2868 90.5105 61.9511 89.383 59.7575 86.006C58.7687 84.484 57.898 82.5375 57.6137 80.5556C57.4715 79.5646 57.4689 78.5439 57.8269 77.5424C58.1851 76.5409 59.0157 75.5921 60.1233 75.1508L60.1502 75.1404L60.1773 75.1307C60.7911 74.9101 61.4364 74.7911 62.088 74.7782C63.287 74.7544 64.4323 75.0882 65.3987 75.6357C66.8712 76.4696 68.059 77.6925 69.243 78.962C69.3715 79.0998 69.5 79.2389 69.6284 79.3774C75.1379 79.6274 77.0608 78.3477 78.428 76.8457C79.1253 76.0794 79.6703 75.1637 80.3669 74.2004C81.0636 73.2371 81.9818 72.1853 83.3962 71.5957C83.8573 71.4033 84.35 71.2994 84.849 71.2894H84.8492ZM85.0373 74.6411C84.913 74.6354 84.789 74.6575 84.6743 74.7058C84.0617 74.9611 83.6326 75.402 83.0685 76.1821C82.5042 76.962 81.8751 78.0396 80.8921 79.1196C79.4005 80.7585 77.0627 82.1835 73.2372 82.6246C74.5656 83.7529 75.9174 84.6702 77.2434 85.2854L79.6851 86.0786C81.8834 86.4991 83.9416 86.0633 86.068 84.3901C88.6967 82.3215 88.7305 79.7467 87.8602 77.5712C87.4252 76.4835 86.7099 75.5704 86.0543 75.0897C85.6239 74.7743 85.2984 74.6516 85.0373 74.6411ZM62.2835 78.1003C61.9946 78.1045 61.6875 78.168 61.3317 78.2926C61.0925 78.3904 61.0591 78.4377 60.9715 78.6826C60.8805 78.9378 60.8309 79.4421 60.9215 80.0743C61.1029 81.3385 61.8173 83.0287 62.5542 84.1631C64.1554 86.628 65.8949 87.1167 68.2226 87.0188C69.4017 86.969 70.693 86.696 72.0206 86.3379C69.9159 84.7869 68.272 82.8374 66.8066 81.266C65.6762 80.054 64.6417 79.0684 63.7601 78.5689C63.3193 78.3193 62.9494 78.1647 62.5669 78.116C62.4728 78.1042 62.3783 78.0989 62.2835 78.1003Z" stroke="black" stroke-width="2.4" mask="url(#path-3-inside-2_324_295)"/>
<g clip-path="url(#clip0_324_295)">
<path d="M89.1295 111.52L89.1302 111.519L101.339 89.2035L110.941 89.1092L118.402 95.1564L114.085 120.205C114.085 120.205 114.085 120.206 114.085 120.206C113.516 123.446 110.188 125.404 107.1 124.326L92.043 119.073C88.9499 117.994 87.5535 114.384 89.1295 111.52Z" fill="#AEDDFF" stroke="black" stroke-width="1.2"/>
<path d="M99.1245 101.204L99.1245 101.204L99.1257 101.202C99.2938 100.892 99.6858 100.736 100.034 100.858L112.17 105.092C112.338 105.153 112.48 105.271 112.571 105.425C112.661 105.578 112.696 105.759 112.67 105.935L110.718 117.267C110.346 119.415 108.132 120.717 106.073 119.998L95.5386 116.323C93.4799 115.605 92.5565 113.209 93.6005 111.296C93.6006 111.296 93.6007 111.296 93.6007 111.296L99.1245 101.204Z" fill="#F4F4F4" stroke="black" stroke-width="1.2"/>
<path d="M103.486 81.9225L103.418 81.8748L103.339 81.8474C102.281 81.4783 101.751 80.5682 101.867 79.6324C102.34 76.0385 105.986 73.7868 109.41 74.9813L120.912 78.9939C124.338 80.1893 125.805 84.2275 123.941 87.3339C123.452 88.1366 122.45 88.5146 121.412 88.1526L121.334 88.1252L121.251 88.1202L111.493 87.5339L103.486 81.9225Z" fill="#D3D3D3" stroke="black" stroke-width="1.2"/>
<path d="M109.631 77.7075C109.55 77.7464 109.457 77.7517 109.373 77.7222C109.289 77.6928 109.219 77.631 109.181 77.5505C109.142 77.47 109.136 77.3774 109.166 77.293C109.195 77.2086 109.257 77.1393 109.338 77.1005C109.418 77.0616 109.511 77.0563 109.595 77.0858C109.68 77.1152 109.749 77.177 109.788 77.2575C109.826 77.338 109.832 77.4306 109.802 77.515C109.773 77.5994 109.711 77.6686 109.631 77.7075ZM119.592 81.1828C119.512 81.2217 119.419 81.2269 119.334 81.1975C119.25 81.1681 119.181 81.1063 119.142 81.0258C119.103 80.9453 119.098 80.8527 119.127 80.7683C119.157 80.6839 119.219 80.6146 119.299 80.5758C119.379 80.5369 119.472 80.5316 119.557 80.5611C119.641 80.5905 119.71 80.6523 119.749 80.7328C119.788 80.8133 119.793 80.9059 119.764 80.9903C119.734 81.0747 119.673 81.1439 119.592 81.1828ZM111.407 81.291C111.378 81.3754 111.316 81.4447 111.235 81.4835C111.155 81.5224 111.062 81.5277 110.978 81.4982C110.893 81.4688 110.824 81.407 110.785 81.3265C110.746 81.246 110.741 81.1534 110.771 81.069C110.8 80.9846 110.862 80.9154 110.942 80.8765C111.023 80.8376 111.115 80.8323 111.2 80.8618C111.284 80.8912 111.354 80.953 111.392 81.0335C111.431 81.114 111.437 81.2066 111.407 81.291ZM116.142 82.9429C116.113 83.0273 116.051 83.0966 115.97 83.1354C115.89 83.1743 115.797 83.1796 115.713 83.1501C115.628 83.1207 115.559 83.0589 115.52 82.9784C115.481 82.8979 115.476 82.8053 115.506 82.7209C115.535 82.6365 115.597 82.5673 115.677 82.5284C115.758 82.4895 115.85 82.4843 115.935 82.5137C116.019 82.5431 116.088 82.6049 116.127 82.6854C116.166 82.7659 116.171 82.8585 116.142 82.9429ZM114.783 79.2527C114.754 79.3371 114.692 79.4063 114.611 79.4452C114.531 79.484 114.438 79.4893 114.354 79.4599C114.269 79.4304 114.2 79.3686 114.161 79.2882C114.122 79.2077 114.117 79.115 114.147 79.0306C114.176 78.9462 114.238 78.877 114.318 78.8381C114.399 78.7993 114.491 78.794 114.576 78.8234C114.66 78.8529 114.729 78.9146 114.768 78.9951C114.807 79.0756 114.812 79.1683 114.783 79.2527ZM103.511 83.178L120.465 89.0932L118.706 94.1369L101.751 88.2217L103.511 83.178Z" fill="#9B9B9B" stroke="black" stroke-width="1.2"/>
</g>
<mask id="mask1_324_295" style="mask-type:alpha" maskUnits="userSpaceOnUse" x="22" y="73" width="36" height="51">
<path d="M40.0248 88.0281C39.5725 86.4452 39.6916 85.1882 39.7189 84.4466L41.0458 84.0674L41.4205 77.8455L43.1897 77.3399L42.2203 73.9481L22.3172 79.6362L23.2865 83.028L25.0557 82.5224L28.6616 87.6067L29.9885 87.2275C30.6247 87.7794 31.1689 88.8469 31.6213 90.4297C32.4614 93.3693 26.561 107.041 29.0813 115.859L30.3738 120.382C31.2785 123.548 37.8311 123.876 45.1289 121.791C52.4267 119.705 57.816 115.963 56.9113 112.798L55.6188 108.275C53.0985 99.4564 40.8649 90.9676 40.0248 88.0281ZM40.6698 106.188C39.4968 106.523 38.2357 106.368 37.1638 105.757C36.092 105.146 35.2972 104.129 34.9545 102.93C34.6117 101.73 34.7489 100.447 35.336 99.3616C35.9231 98.2764 36.9119 97.4784 38.0849 97.1432C39.2579 96.8079 40.5191 96.9629 41.5909 97.574C42.6628 98.185 43.4575 99.2022 43.8003 100.402C44.1431 101.601 44.0058 102.885 43.4188 103.97C42.8317 105.055 41.8429 105.853 40.6698 106.188Z" fill="#D9D9D9"/>
</mask>
<g mask="url(#mask1_324_295)">
<rect x="19" y="67.0001" width="42" height="56.4" fill="#704523"/>
</g>
<path d="M39.5588 83.8784L39.1403 83.9986L39.1249 84.4339C39.1223 84.5079 39.1186 84.5886 39.1146 84.6757C39.08 85.437 39.0231 86.685 39.459 88.2017C39.5991 88.6893 39.9475 89.2207 40.3755 89.7601C40.815 90.314 41.3892 90.9375 42.0464 91.6141C42.6572 92.243 43.3502 92.9285 44.0871 93.6575C44.1445 93.7143 44.2022 93.7714 44.2601 93.8287C45.0634 94.6234 45.9173 95.4705 46.7837 96.3625C50.2714 99.9537 53.862 104.179 55.0824 108.426L56.3815 112.947C56.5513 113.538 56.4437 114.195 56.0123 114.923C55.5763 115.66 54.8273 116.435 53.7919 117.205C51.7233 118.744 48.6261 120.179 45.0231 121.214C41.4201 122.25 38.0335 122.678 35.4636 122.472C34.1772 122.369 33.1311 122.11 32.3706 121.717C31.618 121.329 31.1782 120.829 31.0083 120.238L29.7093 115.718C28.4888 111.47 29.2883 105.983 30.3375 101.089C30.5981 99.8727 30.872 98.7015 31.1308 97.6016C31.1495 97.5222 31.1681 97.4431 31.1867 97.3644C31.4241 96.3555 31.6475 95.4067 31.8312 94.5496C32.0289 93.6273 32.1845 92.7941 32.2629 92.0914C32.3392 91.407 32.3524 90.7717 32.2123 90.2842C31.751 88.6792 31.1663 87.4672 30.3907 86.7963L30.1449 86.5836L29.8324 86.6734L28.9144 86.9372L25.5474 82.2044L25.3011 81.8582L24.8928 81.9755L23.701 82.318L23.0582 80.0809L41.7997 74.6952L42.4426 76.9323L41.2508 77.2748L40.8425 77.3922L40.8175 77.8163L40.4768 83.6146L39.5588 83.8784ZM36.904 106.291C38.1153 106.979 39.5431 107.154 40.8728 106.772C42.2025 106.39 43.3198 105.484 43.9809 104.257C44.6417 103.032 44.7931 101.586 44.4058 100.238C44.0185 98.8906 43.1228 97.7459 41.912 97.058C40.7007 96.3697 39.2729 96.1952 37.9433 96.5773C36.6136 96.9594 35.4963 97.8653 34.8351 99.0916C34.1743 100.317 34.023 101.763 34.4103 103.111C34.7976 104.458 35.6933 105.603 36.904 106.291Z" stroke="black" stroke-width="1.2"/>
<defs>
<clipPath id="clip0_324_295">
<rect width="55.5276" height="55.5276" fill="white" transform="translate(90.291 64) rotate(19.2326)"/>
</clipPath>
</defs>
</svg>
